<?xml version="1.0" standalone="no"?>
<!DOCTYPE svg PUBLIC "-//W3C//DTD SVG 20010904//EN"
 "http://www.w3.org/TR/2001/REC-SVG-20010904/DTD/svg10.dtd">
<svg version="1.0" xmlns="http://www.w3.org/2000/svg"
 width="1181.000000pt" height="1181.000000pt" viewBox="0 0 1181.000000 1181.000000"
 preserveAspectRatio="xMidYMid meet">
<metadata>
Created by potrace 1.15, written by Peter Selinger 2001-2017
</metadata>
<g transform="translate(0.000000,1181.000000) scale(0.100000,-0.100000)"
fill="#000000" stroke="none">
<path d="M6596 11302 c-4 -32 -13 -51 -26 -60 -23 -14 -27 -8 -39 52 l-7 31
-27 -40 c-15 -22 -27 -49 -27 -61 0 -13 -6 -24 -12 -27 -22 -7 -58 15 -58 36
0 16 -5 18 -27 13 -26 -5 -26 -4 4 9 17 8 34 19 37 24 7 11 -100 4 -154 -10
-34 -9 -38 -7 -96 35 -8 7 -18 5 -28 -3 -14 -12 -14 -16 0 -43 14 -28 14 -31
-3 -43 -10 -8 -38 -19 -63 -25 -25 -6 -57 -17 -72 -25 -16 -8 -28 -10 -28 -5
0 6 5 10 11 10 6 0 8 7 5 16 -4 9 -1 23 6 32 9 10 -1 8 -30 -7 -27 -14 -51
-19 -64 -15 -12 4 -24 1 -30 -7 -7 -11 -11 -11 -15 -1 -7 17 -38 15 -57 -3
-20 -21 -86 -48 -86 -36 0 6 5 13 10 16 6 3 10 9 10 14 0 9 -42 8 -57 -2 -9
-5 -13 -3 -13 7 0 9 -4 16 -10 16 -5 0 -11 10 -11 23 -1 20 -2 20 -6 2 -3 -11
-9 -25 -14 -31 -6 -7 -12 -35 -16 -63 -6 -51 -18 -65 -30 -35 -4 12 -7 13 -14
3 -16 -27 -19 0 -5 42 9 24 16 54 16 66 0 12 5 25 10 28 12 7 14 35 2 35 -4 0
-14 -20 -21 -45 -7 -25 -17 -45 -21 -45 -4 0 -13 21 -20 48 -15 53 -30 77 -30
46 0 -12 3 -24 7 -27 13 -13 11 -142 -3 -173 -14 -31 -67 -66 -63 -41 6 36
-30 62 -48 35 -10 -15 -48 -38 -64 -38 -6 0 -28 -13 -49 -30 -39 -31 -60 -38
-60 -20 0 6 -14 4 -31 -5 -36 -19 -47 -14 -23 10 11 10 27 15 42 12 30 -6 54
1 46 14 -15 26 -186 -19 -227 -60 -17 -17 -31 -13 -17 4 10 12 9 15 -5 15 -11
0 -15 5 -12 14 4 11 -4 9 -29 -6 -19 -11 -37 -24 -40 -29 -3 -5 -10 -9 -15 -9
-6 0 -7 5 -4 10 3 6 -5 10 -18 10 -14 0 -27 -6 -30 -14 -8 -20 -96 -90 -104
-82 -4 3 -1 12 5 18 7 7 12 18 12 25 0 17 -77 -36 -85 -59 -3 -9 -12 -19 -21
-22 -11 -4 -13 0 -8 22 l6 27 -20 -30 c-11 -16 -36 -44 -56 -62 -22 -19 -34
-37 -30 -46 3 -8 1 -18 -5 -22 -7 -3 -8 0 -5 9 10 27 -11 18 -35 -15 -13 -17
-25 -28 -28 -26 -6 7 35 87 45 87 8 0 42 53 42 64 0 11 -52 -27 -93 -66 -45
-45 -51 -47 -42 -11 l6 27 -21 -19 c-18 -16 -23 -17 -30 -5 -5 8 -11 12 -13
10 -12 -16 -67 -112 -67 -118 0 -4 -12 -25 -26 -46 -15 -21 -33 -50 -40 -64
l-13 -25 -6 25 c-4 15 -2 36 5 47 6 12 7 21 1 21 -5 0 -14 -12 -20 -27 -10
-27 -11 -27 -6 7 6 35 6 35 -9 10 -9 -14 -15 -33 -16 -42 0 -10 -8 -18 -17
-18 -14 0 -24 -20 -42 -83 -29 -99 -45 -122 -37 -52 3 28 3 43 0 35 -4 -8 -16
-28 -27 -44 -17 -24 -21 -26 -29 -12 -5 10 -5 24 2 37 7 11 9 23 6 27 -4 3
-12 -9 -18 -26 -7 -18 -16 -32 -19 -32 -4 0 -7 -25 -6 -55 1 -40 -4 -60 -16
-72 -16 -16 -17 -16 -17 12 0 35 -9 49 -32 53 -15 2 -18 -5 -18 -36 0 -25 -5
-42 -14 -45 -7 -3 -16 -22 -20 -41 -4 -20 -10 -36 -14 -36 -8 0 -33 -46 -55
-100 -10 -26 -27 -43 -61 -60 l-47 -25 -25 30 c-18 23 -24 26 -24 13 0 -10 -4
-18 -10 -18 -5 0 -10 -7 -10 -15 0 -8 -5 -15 -11 -15 -8 0 -8 -5 1 -15 7 -8
19 -15 26 -15 8 0 14 -4 14 -10 0 -5 -4 -10 -9 -10 -13 0 -55 -60 -48 -67 3
-3 17 6 30 20 31 30 63 39 77 22 12 -15 -14 -29 -33 -19 -8 5 -7 2 1 -7 6 -7
12 -21 12 -31 0 -11 5 -15 15 -12 10 4 18 -3 25 -21 13 -34 13 -35 -5 -29 -8
4 -15 1 -15 -5 0 -25 -20 -9 -21 17 l-1 27 -9 -26 c-7 -18 -22 -30 -52 -39
-23 -8 -45 -13 -49 -12 -5 1 -8 -3 -8 -9 0 -7 11 -9 28 -6 31 6 62 -6 43 -17
-19 -12 -50 -15 -56 -5 -7 10 -75 -60 -75 -77 0 -6 8 -18 18 -27 28 -25 26
-71 -4 -106 -14 -17 -32 -31 -39 -31 -7 0 -16 -7 -19 -16 -9 -24 -7 -28 9 -14
22 18 31 4 12 -18 -10 -10 -17 -27 -17 -38 0 -11 -9 -36 -20 -57 -42 -77 -89
-253 -111 -412 -5 -38 -13 -86 -17 -105 -4 -19 -2 -71 4 -115 7 -44 13 -142
13 -218 1 -77 5 -136 10 -133 14 9 22 -50 25 -174 2 -83 10 -148 30 -235 45
-193 56 -255 61 -342 2 -45 5 -85 6 -90 5 -27 -3 -30 -46 -15 -61 20 -109 7
-113 -29 -3 -29 17 -43 93 -63 43 -10 50 -16 53 -39 3 -26 22 -39 22 -15 0 6
6 4 13 -7 10 -12 22 -16 40 -13 24 5 27 2 28 -26 1 -17 3 -23 6 -13 7 26 23
20 23 -9 0 -23 -3 -25 -26 -20 -29 8 -54 29 -54 46 0 6 -4 8 -10 5 -17 -10 20
-55 54 -63 24 -6 32 -14 34 -35 2 -15 8 -25 13 -22 5 4 9 -1 9 -9 0 -8 7 -19
15 -23 11 -6 12 -16 6 -38 l-8 -30 -12 28 c-6 16 -11 32 -11 37 0 4 -7 10 -15
14 -19 7 -19 -3 -1 -23 20 -24 49 -108 43 -125 -4 -9 -2 -18 3 -21 16 -10 12
-22 -20 -58 -28 -32 -29 -35 -13 -58 25 -35 40 -49 47 -42 6 7 10 -25 7 -64
-1 -11 3 -24 9 -28 9 -5 10 -1 5 14 -4 12 -2 21 4 21 11 0 15 -18 11 -59 -1
-13 2 -21 7 -18 11 7 43 -55 43 -82 0 -10 7 -24 15 -31 8 -7 15 -21 15 -31 0
-38 18 -27 25 16 4 29 10 43 17 39 6 -4 8 -2 4 4 -10 17 -9 463 2 512 28 124
43 210 37 220 -3 5 -2 10 3 10 6 0 9 30 7 73 -1 39 2 94 8 122 7 35 6 50 -2
53 -6 2 -11 13 -11 23 0 12 4 17 11 14 7 -5 8 5 2 32 -7 33 -8 68 -3 131 1 9
1 26 1 37 -2 29 9 127 16 145 6 15 14 78 15 115 0 11 5 33 11 48 7 21 12 25
19 15 5 -8 6 -3 2 15 -4 17 -2 27 5 27 6 0 16 11 21 25 5 14 14 25 20 25 6 0
10 8 9 18 -2 9 3 28 10 41 8 14 14 42 15 62 2 31 0 36 -11 27 -10 -8 -13 -6
-13 6 0 9 7 16 15 16 18 0 29 41 20 71 -6 18 -4 21 9 16 12 -5 16 0 16 18 0
15 7 26 20 30 21 7 25 16 13 29 -10 10 -3 110 8 114 5 2 9 16 9 32 0 15 7 33
15 40 9 8 15 8 15 2 0 -6 -6 -12 -12 -15 -7 -2 -10 -8 -5 -12 4 -5 13 -3 20 4
14 14 38 134 27 141 -13 9 -9 71 4 76 8 3 12 21 11 49 -1 25 2 50 7 57 6 10 8
10 8 1 0 -7 5 -13 11 -13 6 0 8 7 5 16 -4 10 1 18 14 21 10 3 22 14 25 24 4
11 18 26 33 34 l27 15 -27 -6 c-33 -7 -35 4 -7 40 15 19 16 24 5 20 -9 -3 -16
-1 -16 5 0 6 13 11 29 11 16 0 34 7 41 15 7 8 23 15 35 15 12 0 31 11 41 25
23 30 34 32 34 5 0 -46 74 2 84 55 8 41 56 76 56 41 0 -7 11 -16 25 -18 17 -4
25 -1 25 8 0 9 11 14 29 14 17 0 33 5 36 10 3 6 14 10 23 10 10 0 23 9 30 20
7 12 8 20 2 20 -5 0 -10 4 -10 8 0 16 158 54 166 41 3 -5 15 -9 27 -9 12 0 17
4 12 8 -6 4 -12 17 -12 30 -2 19 2 21 24 16 17 -5 24 -3 19 4 -4 6 2 8 16 5
19 -4 20 -3 8 6 -12 8 -7 11 23 11 20 0 37 5 37 10 0 6 21 10 48 9 26 -1 67 4
92 10 60 14 65 14 50 -4 -7 -8 -19 -15 -27 -15 -8 0 -12 -4 -8 -9 3 -5 -1 -11
-10 -13 -10 -2 -12 -8 -6 -17 7 -11 14 -9 36 13 19 19 30 24 35 16 4 -7 17 -8
36 -4 l29 8 -30 7 c-29 6 -29 7 8 8 21 0 52 -5 70 -12 37 -16 107 -30 107 -23
0 3 -12 12 -27 20 l-28 14 28 7 c15 4 40 4 55 0 29 -7 46 -8 108 -3 28 2 40 7
37 15 -3 7 2 11 14 9 78 -14 113 -16 113 -7 0 6 7 11 16 11 8 0 12 4 9 10 -11
17 21 0 34 -19 12 -16 19 -17 43 -9 22 8 34 6 52 -6 13 -8 37 -15 53 -15 36 1
97 -14 146 -35 20 -9 37 -13 37 -10 0 4 6 2 13 -3 29 -23 48 -23 57 0 5 13 9
16 9 7 1 -14 54 -18 146 -11 39 3 -4 17 -46 15 -36 -2 -38 -1 -22 12 10 7 35
14 56 14 30 0 37 -3 37 -20 0 -21 15 -27 25 -9 4 6 13 8 21 5 7 -3 16 -1 19 4
8 13 35 13 35 0 0 -5 -7 -6 -17 -3 -11 4 -14 3 -9 -5 4 -6 17 -11 29 -11 65 3
174 -15 200 -34 25 -17 39 -19 103 -13 59 4 76 3 80 -8 3 -8 14 -16 25 -19 11
-3 22 -17 25 -35 4 -19 11 -29 19 -26 8 3 12 -2 12 -12 -2 -14 6 -18 37 -19
22 -1 42 -7 44 -13 2 -7 12 -12 22 -12 10 0 32 -13 48 -30 17 -16 39 -30 50
-30 11 0 23 -7 26 -16 3 -8 11 -12 17 -9 6 4 13 -2 16 -13 4 -17 11 -19 37
-15 24 4 37 -1 59 -21 l29 -27 -24 -19 -23 -19 23 -1 c12 0 25 -7 28 -15 9
-23 37 -19 31 5 -6 24 18 28 27 5 3 -8 13 -15 21 -15 12 0 15 -6 10 -21 -6
-18 -4 -20 14 -14 24 7 28 -7 6 -25 -20 -16 -19 -34 1 -26 21 8 36 -2 27 -17
-4 -7 -9 -28 -10 -47 -2 -31 0 -33 11 -17 17 23 29 22 21 -2 -3 -11 -1 -22 5
-26 6 -3 8 -10 5 -15 -7 -11 35 -35 53 -32 13 3 16 -10 5 -22 -11 -11 -10 -30
1 -38 6 -4 12 -28 13 -53 2 -25 10 -57 19 -70 14 -22 14 -24 -8 -27 l-23 -3
26 -27 c25 -25 27 -38 8 -38 -4 0 -15 8 -25 17 -16 16 -16 16 -9 -7 3 -14 17
-34 30 -45 28 -24 35 -56 16 -78 -15 -19 -1 -23 16 -6 14 14 36 2 29 -17 -3
-7 0 -19 7 -27 19 -20 40 -60 28 -52 -19 11 -32 -4 -21 -25 11 -21 -6 -73 -21
-64 -10 6 0 -26 14 -43 6 -8 5 -24 -2 -43 -9 -26 -7 -34 9 -50 11 -11 20 -27
20 -35 0 -8 7 -15 15 -15 10 0 15 -10 15 -31 0 -17 4 -28 10 -24 6 3 10 -1 10
-10 0 -13 6 -16 25 -11 26 7 26 6 11 -23 -14 -26 -14 -30 0 -42 11 -9 14 -23
11 -47 -4 -22 -2 -35 7 -38 9 -3 12 -32 12 -103 -1 -55 1 -98 4 -96 10 6 -2
-140 -13 -153 -6 -8 -7 -16 -1 -20 5 -4 9 -43 10 -87 0 -44 10 -136 22 -205
24 -146 54 -400 52 -444 -1 -17 -2 -42 -1 -55 1 -24 1 -24 16 -5 14 19 14 18
15 -3 0 -13 3 -23 8 -23 11 1 42 46 45 67 1 10 5 23 9 28 3 6 9 42 13 80 4 39
11 78 16 87 5 9 13 47 18 84 6 37 14 70 19 73 5 3 11 11 13 16 14 33 66 105
76 105 7 0 13 4 13 10 0 13 -32 0 -51 -22 -17 -19 -35 -25 -25 -9 4 5 0 12 -6
14 -9 4 -8 6 2 6 8 1 21 10 27 20 10 16 9 20 -8 24 -13 4 -19 14 -19 34 0 32
15 61 27 50 4 -4 2 -17 -5 -27 -7 -11 -8 -20 -4 -20 5 0 15 12 22 26 9 17 20
24 32 21 10 -3 21 -1 24 4 3 5 14 9 24 9 10 0 31 6 47 14 15 8 41 19 56 25 26
10 27 13 13 27 -25 25 -81 28 -142 9 -30 -9 -57 -15 -60 -12 -3 3 0 15 6 27 8
15 8 20 1 16 -12 -8 -15 6 -4 18 14 14 35 83 38 126 1 25 10 77 20 115 9 39
20 131 24 205 5 74 13 158 19 185 32 148 45 227 49 285 2 36 7 97 12 135 5 47
5 72 -2 77 -7 4 -8 35 -1 97 5 50 6 92 2 93 -12 5 -21 58 -9 58 18 0 13 32 -9
55 -22 23 -17 70 6 61 19 -7 18 18 -1 34 -18 15 -20 40 -4 40 6 0 1 8 -11 18
-16 13 -23 31 -25 70 -4 47 7 70 18 40 2 -7 7 -10 11 -7 4 3 1 19 -5 35 -6 16
-12 44 -13 62 -1 25 2 31 13 27 10 -4 7 3 -7 17 -15 17 -21 35 -20 61 l1 37
51 0 c28 0 57 4 63 8 7 4 -16 6 -52 4 -36 -2 -72 -1 -81 2 -15 6 -15 8 0 31
16 24 16 25 -4 25 -14 0 -19 4 -14 13 5 8 2 8 -9 -2 -10 -8 -17 -9 -17 -3 0 6
-3 19 -6 29 -5 15 -4 15 5 3 10 -14 12 -13 15 11 2 17 40 28 48 15 5 -7 8 -4
8 8 0 10 7 24 16 30 9 7 15 23 15 37 -1 13 -2 43 -2 67 -2 51 -7 48 -28 -16
-19 -57 -51 -71 -51 -23 0 19 5 30 12 29 7 -2 17 12 22 30 6 18 17 32 26 32
12 1 11 3 -4 11 -10 6 -21 7 -25 3 -11 -15 -51 -35 -51 -25 0 19 35 71 48 71
19 0 47 30 48 52 1 21 -7 23 -24 6 -10 -10 -15 -10 -22 2 -9 13 -10 13 -10 0
0 -8 -5 -22 -10 -30 -9 -13 -11 -13 -20 0 -9 13 -11 13 -20 0 -8 -12 -10 -12
-9 5 0 11 4 39 8 63 5 23 5 42 0 42 -9 0 -23 -20 -25 -39 -3 -16 -44 -61 -56
-61 -4 0 -8 6 -8 13 0 6 -12 17 -26 24 -24 11 -26 10 -21 -7 3 -11 1 -17 -4
-14 -14 8 -40 64 -35 72 3 5 -24 39 -60 76 -62 67 -64 70 -65 125 -1 31 -4 45
-6 31 -8 -47 -14 -57 -23 -35 -8 18 -9 18 -10 -5 -1 -19 -5 -15 -16 20 -8 25
-12 59 -9 75 3 21 2 26 -4 15 -9 -12 -11 -12 -17 3 -3 9 -2 23 4 30 5 6 12 39
16 72 6 51 5 57 -6 40 -12 -18 -13 -17 -20 20 -3 23 -4 7 -2 -35 5 -77 -7 -81
-20 -6 -4 22 -11 35 -16 30 -5 -5 -5 -25 -1 -47 12 -53 -5 -47 -30 11 -17 39
-19 52 -10 78 14 38 14 57 1 49 -5 -3 -10 -15 -10 -25 0 -30 -19 -34 -26 -6
-4 19 1 34 20 57 15 17 25 33 23 36 -3 2 -21 -6 -41 -18 l-37 -22 6 29 c5 24
4 26 -5 11 -19 -29 -30 -9 -31 56 -1 34 -4 51 -6 38 -3 -13 -13 -33 -24 -44
-10 -12 -19 -31 -19 -44 0 -31 -24 -30 -63 3 -30 25 -32 30 -28 90 2 44 -2 69
-12 85 l-15 21 -4 -23 c-4 -31 -28 -37 -27 -7 1 13 -6 43 -14 68 l-15 45 -2
-45 -2 -45 -9 45 c-25 124 -41 170 -59 170 -10 0 -20 -8 -22 -17 -3 -15 -4
-15 -19 0 -9 9 -19 14 -22 10 -3 -3 -20 5 -36 17 -17 12 -31 17 -31 12 0 -5
16 -39 35 -76 35 -67 48 -123 23 -98 -15 15 -38 16 -38 2 0 -5 6 -10 14 -10 8
0 24 -13 36 -30 17 -24 18 -30 6 -30 -8 0 -19 6 -23 14 -4 7 -18 18 -29 24
-13 7 -25 26 -29 49 l-8 38 -9 -32 c-16 -60 -28 -47 -30 34 -1 62 -2 67 -5 26
-2 -29 -8 -53 -14 -53 -5 0 -9 -13 -9 -30 0 -16 -4 -30 -10 -30 -11 0 -13 24
-14 157 -1 45 -4 85 -8 89 -5 4 -8 -1 -8 -11 0 -14 -6 -11 -25 15 -14 19 -25
29 -25 22 0 -7 -7 -12 -15 -12 -9 0 -15 -9 -15 -22 -1 -21 -1 -22 -11 -5 -6
11 -9 32 -5 47 3 19 1 30 -9 34 -8 3 -21 21 -29 41 -13 31 -18 35 -35 26 -17
-10 -21 -6 -31 23 -6 19 -17 40 -25 46 -11 9 -16 -2 -25 -64 -9 -56 -16 -73
-26 -69 -17 6 -18 -11 -3 -39 20 -37 -6 -42 -35 -7 -20 24 -27 42 -25 68 4 82
-2 191 -11 191 -5 0 -10 -9 -10 -20 0 -11 -4 -20 -10 -20 -5 0 -10 6 -10 14 0
14 -36 46 -51 46 -4 0 -9 -21 -13 -48z"/>
<path d="M4505 8361 c-33 -15 -69 -38 -80 -51 -11 -12 -42 -33 -70 -45 -57
-27 -180 -141 -183 -170 -3 -32 -11 -129 -11 -147 -1 -9 -9 -24 -18 -34 -10
-10 -20 -40 -23 -73 -5 -45 -3 -59 11 -75 19 -20 21 -19 32 29 3 11 8 29 13
39 6 16 4 18 -12 13 -19 -7 -19 -7 0 8 26 20 39 19 32 -2 -3 -10 -7 -36 -11
-58 -4 -33 -3 -36 6 -19 6 11 27 26 47 31 l37 10 -35 2 c-33 2 -34 2 -16 16
11 8 14 15 7 15 -7 0 -10 4 -7 9 3 4 16 6 28 4 13 -2 34 0 48 6 23 9 23 10
-12 10 -40 1 -52 19 -18 28 11 3 20 10 20 15 0 7 15 8 36 5 20 -4 46 -1 58 5
20 11 20 11 1 20 -15 6 -12 7 12 4 18 -3 44 1 58 8 19 10 37 11 68 4 28 -6 52
-5 68 1 20 9 18 10 -13 5 -23 -4 -38 -2 -38 4 0 5 -9 12 -20 15 -33 8 -23 27
15 27 19 0 35 -4 35 -9 0 -6 12 -6 28 -2 15 4 47 6 72 4 25 -2 54 -4 64 -4 11
0 27 -4 38 -10 10 -5 48 -12 84 -14 36 -2 80 -9 97 -15 18 -6 72 -23 121 -39
48 -16 93 -34 99 -40 6 -6 16 -11 22 -11 7 0 22 -9 35 -20 13 -11 29 -20 37
-20 7 0 13 -6 13 -13 0 -20 33 -47 58 -47 12 0 22 -5 22 -10 0 -6 7 -10 16 -8
12 2 17 -6 19 -27 2 -16 1 -24 -2 -17 -2 6 -14 12 -26 12 -16 0 -18 -3 -9 -12
20 -20 13 -32 -8 -13 -11 10 -17 21 -15 26 3 4 -9 11 -27 15 -18 3 -55 17 -83
29 -70 32 -103 42 -155 50 -247 36 -527 3 -675 -80 -33 -18 -63 -32 -66 -32
-3 1 -19 -14 -35 -33 -16 -19 -34 -39 -41 -43 -8 -5 -11 -18 -7 -34 5 -17 3
-24 -4 -19 -6 3 -13 3 -16 -2 -6 -9 10 -37 21 -37 4 0 18 -10 31 -22 23 -24
54 -31 49 -11 -1 6 6 14 16 16 16 3 17 1 8 -16 -10 -19 -9 -20 20 -12 25 7 30
6 25 -5 -6 -17 22 -35 53 -35 12 0 21 -4 21 -10 0 -5 9 -10 20 -10 11 0 20 -5
20 -12 0 -6 3 -8 7 -4 4 4 8 15 8 23 0 9 6 18 13 20 7 3 10 -1 6 -11 -3 -9 -1
-16 5 -16 6 0 11 5 11 10 0 6 7 10 15 10 8 0 15 5 15 10 0 18 22 10 27 -10 7
-25 23 -26 23 -2 0 13 2 14 9 4 6 -10 10 -10 21 3 10 13 9 15 -8 15 -27 0 -92
28 -92 40 0 5 -11 20 -25 34 -28 28 -32 46 -10 46 9 0 20 11 24 24 10 25 88
76 118 76 15 0 18 -9 19 -49 2 -91 67 -181 132 -181 12 0 22 -4 22 -9 0 -4
-12 -7 -27 -5 -136 14 -135 14 -129 -2 3 -9 6 -17 6 -19 0 -2 10 -1 22 3 18 4
20 2 15 -17 -5 -21 -3 -23 29 -19 29 3 33 1 29 -13 -3 -10 -2 -20 3 -23 5 -3
8 8 7 24 -1 19 3 30 12 30 7 0 13 -7 13 -15 0 -8 5 -15 11 -15 6 0 9 6 6 13
-2 6 1 18 8 24 16 15 28 -8 18 -34 -4 -11 -3 -14 6 -9 8 5 10 18 7 32 -4 13
-2 24 3 24 15 0 33 -39 25 -52 -4 -7 -3 -8 4 -4 7 4 12 18 12 32 0 31 13 31
39 -3 24 -30 24 -30 -9 -37 -14 -3 -45 -11 -70 -16 -25 -6 -50 -11 -57 -12 -7
-1 -10 -4 -8 -8 3 -4 44 1 92 11 47 10 90 16 95 13 13 -8 10 2 -12 41 -15 27
-17 35 -6 35 8 0 17 -6 19 -12 3 -7 6 -1 6 15 1 25 -11 33 -41 28 -15 -2 -8
11 26 51 19 22 37 53 40 69 4 16 9 43 12 59 8 42 32 39 94 -12 29 -24 60 -47
69 -53 9 -5 19 -14 23 -19 10 -15 -2 -35 -18 -29 -8 3 -14 2 -13 -3 3 -18 -1
-34 -8 -32 -15 5 -173 -26 -173 -33 0 -12 23 -16 85 -13 70 2 158 -9 200 -27
41 -17 47 -17 73 -1 21 14 30 47 15 54 -15 6 -83 115 -83 131 0 19 11 22 27 6
6 -6 24 -13 39 -15 16 -2 46 -6 67 -10 24 -4 37 -2 37 5 0 6 -4 11 -10 11 -21
0 -9 18 16 24 25 7 25 8 9 26 -12 13 -15 27 -10 49 6 29 5 31 -23 31 -33 0
-55 19 -43 39 6 10 10 9 14 -3 7 -17 42 -22 51 -7 3 5 -3 11 -13 14 -15 4 -18
12 -15 41 3 20 0 45 -6 56 -8 15 -8 20 1 20 7 0 9 9 6 22 -3 12 -1 30 5 42 8
15 8 21 -1 24 -6 2 -11 13 -11 24 0 18 2 19 17 7 30 -25 10 71 -28 134 -18 31
-35 55 -36 53 -6 -6 27 -76 36 -76 5 0 11 -10 14 -22 2 -13 8 -32 13 -43 14
-34 -23 2 -52 51 -15 25 -35 44 -50 48 -14 4 -22 11 -19 17 4 5 -13 18 -37 29
-33 14 -76 20 -178 25 -103 4 -138 9 -146 20 -6 8 -24 15 -39 15 -20 0 -26 4
-21 16 4 11 1 14 -12 10 -62 -18 -70 -18 -77 4 -4 12 -12 19 -20 16 -8 -3 -30
-8 -49 -12 -32 -5 -35 -4 -29 12 4 11 3 15 -5 10 -19 -12 -112 5 -112 20 0 8
-7 14 -15 14 -8 0 -15 7 -15 15 0 22 -28 18 -95 -14z"/>
<path d="M7075 8382 c-27 -2 -57 -9 -65 -17 -8 -7 -18 -14 -22 -15 -38 -4 -68
-14 -68 -21 0 -13 24 -11 38 3 8 8 12 8 12 1 0 -13 69 -23 76 -11 3 4 11 8 17
8 7 0 3 -7 -7 -15 -13 -10 -15 -15 -6 -15 7 0 11 -2 9 -5 -3 -2 -20 -1 -37 4
-20 6 -34 6 -38 0 -4 -6 -11 -6 -19 1 -8 7 -19 9 -26 5 -8 -6 -7 -10 2 -17 11
-8 10 -9 -4 -4 -18 6 -111 -4 -103 -11 2 -2 25 -6 52 -9 62 -6 70 -14 13 -14
-32 0 -40 -3 -29 -10 16 -10 17 -11 -100 9 -32 5 -60 6 -66 0 -6 -4 -25 -9
-42 -11 -18 -1 -32 -6 -32 -10 0 -4 -7 -4 -17 -1 -10 4 -14 2 -9 -5 8 -14 -18
-21 -71 -20 -43 0 -105 -23 -132 -49 -7 -8 -20 -12 -27 -9 -15 6 -15 -14 1
-27 6 -5 3 -7 -7 -4 -9 4 -28 -5 -43 -19 -14 -13 -30 -24 -34 -24 -5 0 -11 -7
-15 -15 -4 -13 -2 -13 14 -5 30 16 35 12 14 -12 -17 -19 -17 -21 -1 -15 9 4
17 2 17 -3 0 -5 6 -7 14 -4 25 9 27 -27 4 -47 -16 -12 -18 -18 -9 -19 10 0 7
-7 -9 -22 -14 -13 -28 -22 -32 -21 -5 2 -8 -9 -8 -23 0 -19 4 -25 15 -21 8 4
17 2 21 -4 4 -6 11 -6 20 2 7 6 45 13 84 15 39 1 75 6 81 10 6 3 36 8 66 10
30 2 69 10 86 18 170 73 370 124 386 97 6 -9 20 -9 55 -1 54 12 116 10 116 -3
0 -11 64 2 68 14 5 11 51 10 77 -1 14 -7 8 -8 -20 -4 -29 4 -36 3 -25 -5 17
-12 10 -21 -19 -24 -11 -1 -22 -6 -25 -12 -2 -7 8 -10 28 -8 28 3 29 2 9 -7
-25 -10 -32 -26 -8 -16 8 3 19 -2 24 -12 9 -16 10 -16 16 0 5 13 12 14 41 6
19 -5 39 -6 44 -3 6 3 10 0 10 -7 0 -9 3 -9 10 2 8 13 10 13 10 -1 0 -9 -10
-21 -22 -27 -20 -10 -19 -10 13 -7 37 4 121 -16 120 -28 -1 -4 0 -10 0 -14 1
-5 2 -14 3 -22 0 -8 15 -19 32 -25 17 -6 29 -16 27 -22 -2 -6 6 -14 19 -18 34
-9 58 -7 58 4 0 6 -7 10 -15 10 -20 0 -32 30 -16 39 8 5 7 16 -5 39 -8 17 -12
36 -9 42 4 6 1 17 -5 25 -7 8 -10 21 -7 29 3 8 -1 17 -9 20 -8 3 -14 15 -14
27 0 28 -42 119 -55 119 -5 0 -3 5 5 11 12 8 10 9 -7 4 -13 -3 -23 -2 -23 3 0
5 -18 17 -40 27 -22 10 -45 24 -51 32 -6 7 -18 13 -26 13 -14 0 -58 33 -131
97 -21 18 -41 33 -47 33 -5 0 -21 6 -35 13 -45 24 -84 32 -135 29z"/>
<path d="M6753 7814 c-93 -14 -133 -25 -220 -65 -34 -16 -74 -31 -88 -33 -13
-3 -29 -7 -33 -10 -5 -3 -18 1 -28 9 -26 20 -29 19 -43 -11 -6 -15 -15 -24
-18 -20 -10 9 -43 -46 -43 -71 0 -16 6 -23 20 -23 11 0 20 5 20 11 0 7 10 9
25 5 14 -4 35 -1 48 6 12 6 30 12 40 13 10 1 37 20 60 43 24 23 48 42 55 42 7
0 23 9 35 21 12 11 30 18 39 15 10 -2 16 0 13 4 -7 12 120 51 157 48 23 -2 28
-7 26 -22 -2 -16 -15 -23 -61 -32 -32 -6 -60 -7 -63 -3 -3 5 -10 9 -15 9 -6 0
-7 -4 -4 -10 3 -5 -2 -10 -12 -10 -11 0 -24 -5 -31 -12 -8 -8 -15 -8 -27 2
-12 10 -15 10 -15 -2 0 -19 -28 -44 -60 -53 -27 -8 -92 -72 -152 -150 -42 -54
-42 -54 -25 -76 20 -26 70 -19 117 16 21 16 90 35 90 25 0 -4 10 -5 22 -2 21
5 21 7 -10 19 -18 7 -37 11 -43 8 -13 -8 -36 44 -23 53 6 4 39 28 75 53 93 67
96 67 101 8 4 -38 14 -60 46 -101 22 -29 40 -54 38 -55 -4 -4 -109 15 -130 23
-14 5 -17 4 -12 -4 4 -7 2 -12 -3 -12 -19 0 -12 -17 8 -23 14 -3 18 -1 14 9
-3 8 0 14 6 14 6 0 11 -6 11 -13 0 -9 10 -12 30 -9 16 2 37 2 45 -2 15 -5 14
-9 -2 -36 -21 -36 -33 -38 -33 -7 0 22 -1 21 -13 -3 -12 -24 -11 -26 22 -37
19 -7 38 -10 42 -7 4 2 9 0 11 -6 2 -6 28 -12 58 -15 30 -2 47 -2 38 1 -25 8
-22 37 5 60 12 10 19 15 15 10 -4 -5 -3 -15 2 -21 6 -7 11 -24 12 -38 4 -42
18 -19 19 31 1 26 3 39 6 30 4 -18 33 -26 33 -9 0 4 12 6 28 4 21 -4 24 -2 12
6 -12 9 -10 11 10 11 14 -1 39 2 57 6 25 5 34 2 45 -15 7 -12 17 -21 22 -21 6
0 5 5 -1 11 -14 14 -6 39 13 39 8 0 14 7 14 15 0 11 -5 12 -23 6 -12 -5 -64
-14 -115 -21 -90 -11 -123 -8 -92 10 83 47 134 119 132 185 -1 19 2 35 7 35
31 0 144 -78 163 -113 9 -17 7 -24 -11 -38 -11 -9 -21 -23 -21 -29 0 -7 -7
-10 -15 -6 -10 4 -15 -1 -15 -14 0 -13 7 -20 19 -20 12 0 23 -11 30 -30 11
-32 31 -41 31 -14 0 15 2 15 25 0 23 -15 25 -15 35 3 5 11 25 25 44 32 21 8
32 17 29 26 -3 8 2 13 15 13 12 0 24 5 27 11 4 6 14 8 22 5 15 -6 63 20 63 34
0 5 -13 21 -30 37 -19 17 -28 34 -24 45 5 17 -23 58 -39 58 -11 0 -37 26 -37
37 0 9 -93 53 -113 53 -7 0 -17 4 -22 9 -6 4 -37 14 -70 20 -33 7 -69 14 -80
17 -11 3 -56 7 -100 10 -44 2 -96 6 -115 8 -19 1 -72 -3 -117 -10z"/>
<path d="M3192 7382 c-23 -21 -32 -42 -40 -92 -7 -36 -10 -74 -7 -85 2 -11 6
-45 9 -75 2 -30 13 -84 24 -120 11 -36 23 -87 26 -114 8 -64 44 -186 56 -186
12 0 4 165 -10 210 -6 19 -13 96 -16 170 -4 125 -3 138 18 179 23 43 34 53 72
65 18 6 18 7 0 27 -22 24 -66 49 -87 49 -8 0 -28 -12 -45 -28z"/>
<path d="M8310 7372 l-23 -19 22 -32 c12 -17 31 -36 41 -41 11 -6 26 -33 35
-62 21 -72 36 -104 54 -115 14 -9 16 4 16 108 0 104 -2 121 -21 146 -27 36
-89 44 -124 15z"/>
<path d="M8446 7005 c-9 -14 -14 -30 -11 -35 3 -5 1 -11 -4 -14 -5 -3 -12 -30
-16 -59 -4 -28 -11 -56 -15 -62 -4 -5 -13 -28 -20 -50 -7 -22 -17 -45 -22 -52
-6 -7 -8 -18 -6 -25 3 -7 -1 -19 -8 -26 -7 -7 -11 -19 -7 -27 5 -15 36 26 71
95 7 14 23 43 35 65 17 32 22 57 22 128 0 48 0 87 -1 87 -1 0 -9 -11 -18 -25z"/>
<path d="M7998 6655 c4 -55 2 -64 -16 -74 -21 -11 -46 -67 -36 -82 3 -6 22 -8
41 -7 53 4 50 -15 -7 -46 l-50 -27 0 -57 c0 -62 26 -142 45 -142 15 0 9 76 -7
97 -6 8 8 17 47 32 31 12 60 21 65 21 6 0 10 6 10 13 0 8 12 24 26 38 35 32
50 65 57 121 6 43 4 49 -17 63 -30 20 -52 11 -65 -26 -10 -30 -31 -40 -31 -14
0 8 -4 15 -10 15 -5 0 -10 -13 -10 -29 0 -18 -6 -31 -17 -35 -31 -12 -35 11
-8 40 18 20 24 34 20 49 -4 11 -9 34 -12 50 -3 17 -11 38 -17 47 -9 13 -11 3
-8 -47z"/>
<path d="M3447 6629 c-9 -6 -15 -14 -13 -18 3 -4 6 -26 7 -49 2 -23 9 -44 16
-46 7 -3 13 -11 13 -19 0 -7 11 -24 25 -37 14 -13 25 -32 25 -41 0 -12 5 -16
15 -13 8 4 21 2 28 -4 6 -5 29 -15 50 -21 42 -14 44 -19 20 -36 -10 -8 -12
-14 -5 -18 11 -7 52 54 52 78 0 24 -12 45 -25 45 -19 0 -75 49 -75 65 0 8 -6
20 -13 27 -7 7 -16 21 -20 31 -3 9 -13 17 -21 17 -7 0 -21 11 -30 25 -18 28
-23 29 -49 14z"/>
<path d="M5565 6470 c-91 -43 -116 -66 -113 -102 2 -29 -1 -28 128 -12 36 4
71 7 79 5 8 -1 17 1 20 6 3 4 25 18 48 29 l41 21 38 -21 c44 -25 51 -38 29
-60 -14 -14 -20 -14 -49 -2 -26 11 -36 11 -49 1 -21 -15 -22 -35 -3 -35 7 0
27 -7 42 -15 39 -20 104 -20 104 0 0 18 1 18 35 5 62 -24 185 -17 185 10 0 11
-69 32 -81 24 -4 -2 -11 1 -14 6 -4 6 -19 9 -34 5 -21 -4 -33 1 -56 24 -17 17
-35 31 -40 31 -10 0 -57 42 -83 74 -11 14 -50 27 -117 39 -23 4 -52 -4 -110
-33z"/>
<path d="M6145 6453 c-30 -6 -69 -39 -61 -52 4 -6 18 -11 31 -11 13 0 36 -6
52 -14 15 -8 54 -20 86 -27 63 -14 71 -20 62 -48 -3 -12 -19 -21 -42 -24 -40
-7 -73 -32 -73 -56 0 -13 2 -14 9 -2 8 12 12 13 25 2 21 -18 124 2 181 34 41
24 85 67 85 85 0 13 -47 13 -55 0 -3 -5 -26 11 -51 35 -63 60 -171 94 -249 78z"/>
<path d="M5323 6363 c-31 -6 -29 -12 12 -54 42 -44 114 -69 214 -76 60 -5 73
-3 69 8 -3 8 -22 17 -44 21 -21 3 -52 13 -69 22 -16 9 -36 16 -43 16 -7 0 -34
16 -59 35 -25 19 -49 34 -52 34 -3 -1 -16 -4 -28 -6z"/>
<path d="M7868 6355 c-4 -11 -5 -31 -4 -45 3 -28 -21 -73 -35 -64 -11 7 -12 9
6 -56 8 -30 11 -57 6 -60 -4 -3 -12 -24 -18 -47 -10 -40 -10 -42 8 -32 11 5
19 17 20 27 0 12 2 13 6 4 3 -8 -4 -27 -16 -43 -12 -16 -19 -35 -15 -41 5 -8
10 -5 15 8 5 13 8 14 8 4 1 -8 18 -22 39 -31 l39 -16 -15 41 c-8 23 -20 115
-26 206 -7 91 -15 156 -18 145z"/>
<path d="M5455 5714 c-11 -8 -26 -12 -34 -9 -7 3 -24 -1 -36 -9 -12 -8 -41
-19 -63 -26 -23 -6 -42 -14 -42 -19 0 -5 -21 -16 -46 -26 -44 -17 -123 -16
-167 1 -18 6 -61 -32 -52 -46 3 -6 -1 -7 -10 -4 -11 5 -14 2 -9 -10 3 -9 10
-16 15 -16 5 0 9 -4 9 -10 0 -5 -7 -10 -15 -10 -8 0 -15 -9 -15 -20 0 -11 4
-20 8 -20 5 0 18 -9 31 -21 12 -11 36 -22 54 -23 42 -4 77 -15 77 -26 0 -5 14
-11 31 -15 17 -4 33 -13 35 -20 4 -10 14 -11 38 -4 19 5 45 5 64 0 19 -6 34
-6 37 0 4 5 15 9 26 9 19 0 44 43 34 60 -6 10 19 20 50 20 13 0 26 4 29 9 3 5
23 12 43 16 21 4 43 11 50 16 7 7 14 6 18 -1 4 -6 12 -7 23 -1 20 11 124 17
138 9 5 -3 55 -4 112 -3 63 2 102 -1 102 -7 0 -6 7 -5 15 2 9 7 22 9 32 4 10
-4 25 -8 33 -10 15 -1 84 -20 118 -30 15 -5 15 -4 2 5 -12 9 -10 11 11 11 15
0 29 -7 33 -16 4 -11 14 -14 35 -9 20 4 34 1 45 -10 15 -15 16 -15 16 7 1 23
1 23 25 -5 24 -27 36 -75 16 -62 -5 3 -12 1 -15 -4 -3 -5 4 -11 17 -15 12 -3
23 -2 25 3 1 4 14 6 27 3 14 -2 43 3 65 12 22 9 53 16 68 16 15 0 40 7 55 15
28 14 62 11 51 -6 -3 -5 -1 -9 5 -9 5 0 13 9 16 20 3 11 10 20 15 20 5 0 16 3
26 7 12 4 15 3 10 -5 -4 -7 -1 -12 8 -12 9 0 16 7 16 15 0 10 10 15 31 15 l30
0 -21 30 c-12 17 -17 30 -11 30 19 0 12 16 -12 29 -12 7 -28 25 -35 40 -12 28
-41 35 -69 18 -6 -4 -14 -1 -16 5 -3 8 -6 6 -6 -5 -1 -14 -5 -16 -19 -8 -10 6
-29 7 -41 4 -15 -4 -27 1 -40 16 -10 11 -25 21 -34 21 -9 0 -18 4 -22 9 -3 6
-13 9 -23 9 -9 -1 -43 11 -74 25 -66 31 -68 32 -68 12 0 -8 -4 -15 -10 -15 -5
0 -17 -14 -26 -31 -13 -25 -18 -29 -26 -18 -7 11 -11 11 -15 2 -3 -8 -23 -13
-49 -13 -33 0 -43 3 -38 13 4 6 4 9 0 5 -4 -3 -21 -2 -37 2 -16 5 -29 5 -29 0
0 -9 -76 -5 -102 5 -10 4 -18 15 -18 24 0 13 -9 18 -34 19 -27 1 -35 -3 -40
-21 l-6 -22 -20 24 c-14 16 -33 24 -60 26 -25 2 -38 0 -34 -7 3 -5 -3 -18 -15
-29 -17 -16 -21 -17 -21 -4 0 21 -17 19 -23 -2 -4 -17 -5 -17 -6 0 -1 18 -21
25 -21 6 0 -5 -4 -7 -10 -4 -5 3 -10 1 -10 -4 0 -14 -37 -14 -45 0 -4 6 -26 9
-49 8 -48 -2 -76 8 -76 27 0 23 -33 34 -55 18z"/>
<path d="M7690 5323 c0 -10 -7 -29 -15 -43 -8 -14 -21 -40 -30 -57 -9 -20 -23
-33 -34 -33 -10 0 -21 -7 -25 -15 -3 -8 -1 -15 4 -15 6 0 10 -8 10 -17 1 -14
3 -13 14 5 11 22 13 22 26 7 13 -15 11 -20 -15 -42 -26 -23 -30 -24 -35 -8 -5
15 -8 14 -23 -8 -9 -15 -17 -32 -17 -39 0 -23 -31 -60 -46 -54 -7 3 -18 -4
-24 -14 -8 -16 -15 -18 -29 -11 -12 7 -22 6 -31 -2 -10 -9 -14 -9 -17 1 -8 22
-33 13 -33 -13 0 -23 -2 -24 -26 -13 -20 10 -27 9 -34 -2 -5 -8 -7 -17 -5 -20
2 -3 -5 -11 -15 -17 -15 -10 -19 -8 -24 13 -4 13 -2 33 4 44 16 31 12 42 -10
28 -14 -9 -20 -24 -20 -46 0 -23 -4 -32 -12 -29 -7 2 -12 16 -10 31 1 14 -2
26 -8 26 -5 0 -10 9 -10 20 0 11 6 20 13 20 9 0 9 2 -1 8 -8 5 -10 16 -5 28 7
18 6 18 -11 2 -9 -10 -26 -18 -37 -18 -11 0 -19 -7 -19 -17 0 -13 3 -14 12 -5
7 7 16 12 20 12 11 0 10 -42 -2 -60 -9 -13 -14 -11 -35 13 -13 15 -29 27 -35
27 -14 0 -30 -44 -30 -86 0 -19 -4 -34 -9 -34 -6 0 -7 29 -4 70 5 60 4 70 -10
70 -9 0 -19 -4 -22 -10 -10 -16 -25 -12 -25 6 0 12 -8 8 -27 -13 -16 -16 -35
-32 -43 -35 -13 -4 -13 -7 -1 -22 8 -9 20 -15 28 -12 7 3 13 1 13 -5 0 -7 -11
-9 -27 -5 -16 3 -22 3 -15 0 14 -7 17 -70 3 -79 -5 -3 -12 -1 -15 4 -7 11 -39
8 -43 -5 -2 -5 15 -10 36 -12 36 -2 40 0 44 25 4 26 4 26 6 -4 1 -23 -3 -33
-14 -33 -8 0 -15 -5 -15 -11 0 -6 7 -9 15 -5 9 3 15 0 15 -9 0 -8 -7 -15 -15
-15 -8 0 -14 -3 -13 -7 1 -5 -3 -18 -10 -30 -7 -12 -11 -42 -10 -67 1 -37 -4
-50 -26 -73 -23 -22 -29 -25 -37 -13 -7 12 -9 10 -9 -7 0 -13 5 -23 11 -23 6
0 9 -6 6 -12 -2 -7 -11 -12 -19 -10 -8 1 -27 -10 -43 -25 -15 -16 -32 -28 -39
-28 -6 0 -12 -10 -14 -22 -2 -12 -15 -26 -30 -33 -42 -17 -78 -40 -64 -40 8 0
12 -9 10 -22 -2 -16 -11 -24 -30 -26 -14 -2 -32 -10 -38 -18 -7 -8 -19 -14
-26 -14 -20 0 -6 27 18 33 11 3 17 10 14 16 -4 6 -1 19 6 30 21 34 -1 36 -30
3 -22 -24 -33 -30 -52 -25 -19 5 -22 3 -17 -10 4 -11 1 -17 -8 -17 -8 0 -12 8
-10 18 2 14 -5 17 -44 19 -25 1 -38 -1 -28 -4 9 -2 17 -11 17 -20 0 -9 -6 -13
-15 -9 -10 4 -15 -1 -15 -14 0 -11 -4 -20 -10 -20 -5 0 -10 12 -10 26 0 22 -2
25 -15 14 -8 -7 -15 -19 -15 -27 0 -10 -6 -13 -16 -9 -9 3 -26 6 -39 6 -18 0
-23 5 -22 20 1 11 8 20 16 20 8 0 11 3 8 7 -11 10 -58 -19 -53 -33 3 -7 -10
-14 -32 -18 -40 -6 -85 2 -77 14 5 8 -112 39 -120 32 -3 -3 0 -11 5 -17 8 -9
5 -15 -7 -20 -22 -9 -93 -13 -88 -6 1 3 -10 6 -26 7 -24 1 -29 -3 -29 -24 0
-17 -4 -23 -15 -18 -8 3 -15 0 -15 -7 0 -8 -4 -7 -11 3 -8 11 -12 12 -16 3 -8
-21 -44 -15 -50 7 -3 11 -13 20 -22 20 -9 0 -26 3 -38 6 -17 5 -23 2 -23 -10
0 -20 -39 -22 -46 -1 -3 8 -14 17 -25 20 -14 5 -18 12 -13 31 5 18 2 24 -11
24 -14 0 -16 -6 -10 -27 3 -16 11 -29 16 -31 5 -2 9 -8 9 -13 0 -13 -32 -10
-53 5 -11 9 -33 12 -65 8 -41 -5 -46 -3 -34 10 10 13 10 17 -2 21 -8 3 -20 -1
-27 -9 -12 -14 -14 -14 -26 3 -11 14 -15 15 -22 4 -7 -11 -9 -11 -14 0 -4 11
-6 11 -6 1 -1 -11 -3 -11 -14 0 -7 7 -16 21 -20 31 -3 9 -13 17 -21 17 -8 0
-22 3 -32 7 -11 4 -15 3 -11 -4 8 -13 -2 -43 -14 -43 -4 0 -6 8 -3 18 5 14 3
14 -10 -2 -9 -11 -16 -15 -16 -9 0 6 -9 9 -21 6 -19 -5 -21 -3 -15 25 4 18 3
33 -3 37 -6 3 -11 0 -11 -7 0 -8 -9 -14 -20 -14 -11 0 -20 4 -20 8 0 4 -4 8
-10 8 -5 0 -10 -7 -10 -15 0 -10 -10 -15 -27 -15 l-27 0 23 21 c15 15 20 27
15 42 -12 40 -23 37 -26 -6 -2 -21 -8 -27 -25 -27 -13 0 -22 4 -21 9 2 4 -8
17 -21 28 -13 11 -25 31 -26 44 -1 14 -9 25 -20 28 -14 2 -17 -2 -12 -18 8
-32 -25 -26 -44 8 -10 16 -33 37 -53 46 -20 10 -36 21 -36 26 0 5 -7 9 -16 9
-11 0 -14 6 -9 20 6 20 -6 26 -44 20 -9 -1 -12 4 -8 14 4 9 2 16 -3 16 -5 0
-7 7 -4 15 4 9 0 15 -9 15 -8 0 -17 7 -21 15 -3 8 -14 15 -25 15 -15 0 -19 5
-14 17 5 13 2 15 -12 10 -9 -4 -24 -2 -31 4 -8 6 -14 8 -14 3 0 -5 -9 4 -19
19 -11 18 -21 25 -25 18 -4 -6 -18 -11 -32 -11 -21 0 -24 -4 -24 -37 0 -21 -4
-33 -8 -26 -4 6 -24 14 -44 18 -21 4 -35 11 -32 17 9 14 -28 38 -50 31 -16 -4
-18 -1 -13 19 5 17 1 29 -12 40 -10 9 -21 22 -23 29 -4 12 -8 12 -21 1 -13
-11 -16 -10 -23 10 -4 13 -8 25 -9 28 -2 16 -19 30 -36 30 -10 0 -24 9 -31 20
-7 11 -18 20 -25 20 -7 0 -10 7 -7 15 4 10 0 15 -11 15 -9 0 -14 4 -10 9 3 5
1 12 -3 15 -5 3 -22 -8 -38 -25 -16 -17 -22 -29 -14 -27 8 2 15 -4 16 -12 0
-8 2 -21 2 -27 1 -7 9 -13 18 -13 11 0 14 -6 9 -20 -7 -23 4 -26 25 -7 12 10
12 9 1 -6 -12 -15 -11 -20 3 -36 10 -11 16 -25 15 -33 -3 -28 2 -38 44 -80 70
-70 164 -158 170 -158 3 0 26 -14 51 -30 29 -20 44 -37 43 -50 -1 -14 -4 -16
-14 -8 -8 6 -13 7 -13 0 0 -16 29 -35 46 -28 8 3 12 10 9 16 -3 5 -2 10 4 10
18 0 24 -23 10 -34 -31 -23 -6 -53 39 -47 6 1 12 -6 12 -16 0 -10 9 -26 20
-36 25 -21 26 -39 3 -30 -17 6 -17 5 -2 -13 9 -10 22 -34 29 -53 11 -28 15
-31 20 -16 5 14 12 8 32 -31 24 -47 27 -74 7 -74 -5 0 -9 6 -9 14 0 8 -8 14
-19 13 -24 -1 -22 -14 12 -58 15 -20 27 -42 27 -49 0 -7 8 -10 20 -7 14 3 27
-3 41 -21 l21 -27 -7 44 c-7 40 -6 42 11 33 13 -7 22 -6 32 4 7 8 19 14 25 14
8 0 7 -3 -2 -9 -11 -7 -10 -13 5 -35 11 -14 25 -23 32 -21 18 6 15 -9 -9 -39
l-20 -26 20 0 c12 0 21 4 21 9 0 5 10 7 21 4 19 -5 20 -4 10 15 -17 32 -13 40
8 15 12 -14 27 -21 40 -18 11 2 21 -1 21 -7 0 -5 -7 -8 -15 -4 -16 6 -21 -9
-6 -18 17 -11 41 6 42 28 1 16 2 17 6 4 2 -10 11 -18 18 -18 10 0 12 -13 9
-52 -3 -29 -9 -57 -15 -64 -7 -8 -3 -13 11 -17 11 -3 23 -1 26 4 11 18 24 -2
14 -21 -7 -13 -7 -21 0 -25 5 -3 10 1 10 9 0 18 25 22 35 6 3 -5 10 -10 15
-10 9 0 1 40 -9 40 -3 0 -24 16 -46 35 -30 25 -34 32 -18 28 12 -3 34 -18 50
-34 33 -34 43 -36 43 -9 0 11 -4 20 -10 20 -5 0 -10 6 -10 13 0 7 -10 13 -21
14 -26 2 -51 23 -28 23 9 0 19 -3 22 -7 11 -10 58 -13 52 -2 -10 16 11 10 33
-10 26 -22 28 -31 7 -31 -8 0 -15 5 -15 10 0 6 -5 10 -11 10 -8 0 -8 -4 0 -14
6 -7 9 -21 5 -30 -8 -22 12 -20 36 4 12 12 22 15 26 9 3 -6 14 -9 24 -6 10 3
30 -4 44 -16 17 -14 43 -21 81 -23 l56 -2 -26 24 c-14 13 -33 24 -41 24 -7 0
-14 4 -14 8 0 14 64 0 76 -17 9 -11 28 -15 70 -14 33 0 62 -4 65 -9 4 -6 13
-8 20 -6 8 3 -5 13 -29 23 -50 22 -55 36 -9 26 41 -10 77 -29 77 -41 0 -13 27
-13 32 1 5 16 38 -1 38 -21 0 -21 59 -32 112 -21 27 6 32 11 30 29 -3 19 2 22
28 22 17 0 51 5 75 11 31 8 49 8 62 0 15 -9 13 -10 -17 -11 -31 -1 -33 -2 -15
-12 34 -19 36 -33 7 -39 l-27 -6 29 -8 c20 -5 31 -4 37 6 6 10 32 14 96 14 48
1 112 5 141 9 49 8 53 7 50 -10 -2 -13 2 -18 12 -15 39 10 70 12 70 5 0 -11
-20 -42 -20 -31 0 4 -12 1 -27 -6 -16 -8 -34 -12 -40 -10 -7 3 -13 -1 -13 -7
0 -8 -10 -11 -25 -8 -14 3 -25 1 -25 -3 0 -14 54 -10 93 6 45 18 47 19 47 0 0
-8 -14 -17 -36 -21 -19 -4 -38 -12 -41 -20 -2 -7 -12 -10 -20 -7 -11 4 -14 2
-9 -5 4 -7 1 -12 -7 -12 -8 0 -18 -7 -21 -16 -8 -21 -7 -31 2 -18 7 11 65 44
77 44 3 0 5 -8 5 -17 0 -9 3 -13 8 -9 4 4 7 13 7 19 0 5 5 12 11 14 23 8 1
-45 -23 -56 -22 -10 -25 -9 -20 4 9 21 -1 19 -35 -10 -19 -16 -24 -25 -14 -25
8 0 17 4 21 9 5 10 51 9 60 -1 3 -3 21 10 41 28 38 36 64 44 64 18 0 -8 5 -12
10 -9 16 10 11 23 -11 30 -12 4 -17 10 -12 14 6 3 16 17 23 30 11 21 14 22 21
8 6 -9 16 -14 25 -10 13 5 15 1 9 -18 -4 -13 -14 -28 -21 -32 -14 -8 -20 -47
-8 -47 18 0 65 44 60 57 -3 8 -1 11 4 8 15 -9 12 -24 -11 -56 -11 -16 -16 -29
-10 -29 20 0 11 -20 -13 -31 -16 -8 -26 -23 -30 -44 -4 -18 -13 -36 -22 -39
-9 -4 -14 -15 -12 -30 4 -32 -31 -76 -60 -76 -16 0 -22 4 -19 14 7 17 -11 36
-34 36 -23 0 -45 26 -27 33 7 2 10 7 6 11 -3 4 -16 2 -29 -5 -22 -11 -22 -12
-4 -25 18 -13 18 -14 -3 -14 -17 0 -22 -6 -22 -24 0 -32 -25 -40 -100 -31 -68
8 -101 1 -93 -21 3 -9 -2 -14 -16 -14 -12 0 -20 -6 -19 -12 2 -7 -5 -12 -14
-12 -16 2 -23 -8 -19 -29 1 -4 -12 -15 -29 -25 -37 -21 -38 -31 -4 -29 15 1
29 -4 31 -10 3 -7 -2 -13 -11 -13 -9 0 -26 -12 -39 -26 -50 -60 -54 -61 -128
-58 -76 3 -92 9 -69 25 12 8 10 9 -6 4 -16 -4 -23 0 -27 15 -3 11 -17 24 -31
30 -14 5 -26 17 -26 26 0 13 -3 14 -15 4 -11 -10 -18 -9 -30 3 -8 9 -15 20
-15 26 0 6 -7 11 -16 11 -14 0 -14 -3 -4 -15 17 -20 11 -24 -33 -27 -36 -3
-46 -11 -27 -23 6 -4 6 -15 -1 -32 -5 -14 -7 -28 -4 -31 3 -3 5 0 5 6 0 7 5
12 10 12 6 0 10 -6 10 -14 0 -8 6 -17 13 -19 7 -3 4 -6 -6 -6 -27 -1 -12 -18
23 -24 16 -4 30 -12 30 -19 0 -17 66 -62 79 -54 5 4 12 2 16 -4 3 -5 1 -10 -4
-10 -6 0 -11 -6 -11 -14 0 -7 -10 -16 -22 -20 l-23 -6 25 -15 c56 -32 73 -37
82 -21 6 11 15 12 39 6 19 -6 39 -6 49 0 13 7 20 6 22 -2 3 -7 12 -4 26 10 12
12 27 22 32 22 6 0 10 7 10 15 0 9 6 12 15 9 8 -4 22 -1 29 6 11 8 20 8 34 1
23 -12 32 -6 32 22 0 16 3 17 15 7 12 -10 15 -9 15 5 0 10 3 16 6 12 11 -11
34 21 28 37 -8 20 9 41 49 61 37 18 32 18 53 -2 16 -16 18 -16 32 5 13 19 23
22 88 22 l73 0 -6 -35 c-4 -25 -2 -35 8 -35 10 0 10 -3 1 -12 -7 -7 -12 -20
-12 -30 0 -20 -8 -22 -30 -8 -13 9 -11 13 9 29 30 23 15 34 -34 25 -23 -4 -35
-2 -35 5 0 6 -6 11 -14 11 -18 0 -33 -43 -17 -48 17 -6 13 -22 -6 -22 -16 0
-16 -2 -3 -11 11 -8 12 -12 3 -16 -14 -5 -18 -33 -5 -33 4 0 13 5 19 11 8 8
19 6 39 -8 16 -10 25 -12 21 -6 -6 9 4 19 29 30 20 10 53 33 72 51 20 17 46
32 59 32 13 0 29 10 39 24 8 14 29 28 45 31 37 8 53 42 31 64 -12 13 -12 16 3
28 14 10 16 15 6 27 -7 8 -8 17 -3 20 6 3 12 -1 16 -9 3 -8 16 -15 28 -15 15
0 19 3 11 8 -9 6 -6 17 13 45 24 36 24 37 4 37 -27 0 -26 30 1 54 15 13 18 20
10 25 -6 4 -9 15 -5 24 7 20 -16 23 -34 5 -9 -9 -12 -8 -12 5 0 11 11 20 30
24 29 5 52 23 31 23 -9 0 -6 14 15 73 4 9 14 17 24 17 23 0 44 26 36 45 -3 9
0 15 9 15 8 0 15 5 15 12 0 17 73 79 87 73 7 -2 12 -1 10 3 -3 10 54 72 62 68
3 -3 14 2 24 9 14 10 15 15 5 21 -9 6 -6 10 11 14 14 3 27 12 29 19 4 11 -3
12 -31 7 -19 -4 -37 -2 -39 3 -2 5 -18 4 -38 -3 -25 -8 -36 -18 -38 -34 -3
-17 -9 -22 -25 -20 -16 2 -22 -2 -22 -17 0 -12 -8 -21 -20 -22 -11 -2 -14 0
-7 3 17 8 15 27 -2 21 -10 -4 -13 -1 -9 9 3 7 10 14 17 14 17 1 91 78 83 87
-5 4 -12 1 -16 -6 -5 -7 -11 -9 -14 -4 -4 6 9 25 28 43 19 19 35 38 35 43 0 6
-8 0 -19 -11 -25 -29 -46 -30 -31 -1 16 28 52 41 66 23 10 -12 12 -11 17 5 3
15 -1 21 -17 23 -28 4 -27 30 2 43 25 11 29 25 7 25 -13 0 -14 2 -3 14 8 9 17
11 22 5 17 -16 28 -10 21 11 -6 20 9 28 20 10 9 -14 27 -12 23 2 -3 7 3 19 12
28 19 18 44 86 35 99 -8 14 15 25 26 14 13 -13 89 24 89 42 0 7 6 15 13 18 9
3 9 7 0 17 -6 7 -9 19 -6 27 5 13 1 12 -21 -2 -15 -10 -29 -15 -32 -12 -3 3
12 15 35 27 23 11 41 25 41 30 0 6 5 10 11 10 7 0 36 20 65 45 57 49 64 52 64
29 0 -8 -4 -12 -10 -9 -5 3 -10 1 -10 -4 0 -6 4 -11 9 -11 5 0 12 -8 14 -17 3
-10 5 -1 6 20 1 23 5 36 11 32 6 -3 10 -2 10 4 0 5 -8 12 -17 14 -15 4 -16 5
-2 6 11 1 22 17 30 46 7 25 19 45 27 45 7 0 11 4 8 9 -3 5 1 11 9 15 8 3 12
12 9 21 -3 8 -1 15 5 15 6 0 11 9 11 20 0 11 5 20 10 20 10 0 100 133 100 148
0 4 9 18 20 32 11 14 20 34 20 45 0 11 7 29 15 39 8 11 15 28 15 38 0 10 5 18
11 18 6 0 9 9 6 20 -3 10 2 25 10 32 8 6 13 22 10 35 -2 12 1 24 7 26 8 3 8
10 1 23 -14 26 -7 62 13 67 12 3 10 5 -5 6 -16 1 -23 -5 -23 -16z"/>
<path d="M7398 4529 c-2 -16 -10 -24 -22 -24 -10 0 -22 -10 -27 -22 -4 -11
-12 -24 -18 -28 -16 -9 -13 -25 4 -25 9 0 18 -7 21 -15 4 -8 13 -15 21 -15 11
0 13 -7 9 -24 -3 -14 -1 -28 4 -31 7 -4 7 -11 2 -18 -5 -7 -13 -25 -17 -42
l-7 -30 -10 25 c-7 19 -5 27 6 36 18 13 21 34 6 34 -5 0 -10 -4 -10 -10 0 -5
-3 -10 -7 -9 -22 3 -52 -16 -57 -35 -3 -12 -15 -33 -26 -46 -16 -19 -22 -21
-35 -10 -12 10 -15 10 -15 -4 0 -11 -9 -16 -26 -16 l-25 0 26 -24 c15 -14 24
-30 20 -36 -8 -13 20 -24 42 -16 14 6 14 8 -3 22 -18 15 -18 15 4 11 17 -4 22
-1 22 14 0 10 7 19 15 19 18 0 20 -26 3 -33 -9 -3 -6 -11 9 -26 14 -13 28 -18
40 -14 17 7 17 6 0 -20 -23 -35 -23 -77 1 -78 13 0 12 -2 -5 -9 -28 -11 -28
-57 -1 -74 21 -13 24 -28 6 -25 -34 4 -41 0 -27 -17 7 -9 12 -34 10 -60 -2
-38 0 -44 18 -44 17 0 19 -5 14 -37 -7 -49 -13 -55 -13 -15 0 22 -5 32 -15 32
-25 0 -18 -48 11 -75 24 -22 25 -25 9 -48 -9 -15 -13 -32 -8 -43 6 -17 8 -17
15 6 7 26 0 -62 -8 -91 -3 -10 -20 -20 -39 -23 -26 -5 -35 -12 -35 -26 0 -22
25 -27 33 -7 3 7 6 5 6 -6 1 -16 -17 -56 -30 -67 -13 -11 -29 -104 -31 -175
-1 -63 -4 -78 -20 -86 -24 -13 -26 -79 -2 -79 13 0 12 -4 -5 -25 -17 -22 -18
-31 -9 -57 9 -26 8 -33 -7 -44 -10 -8 -15 -20 -11 -29 4 -11 1 -15 -12 -13
-14 3 -17 -4 -15 -39 1 -32 -2 -43 -13 -43 -8 0 -14 -9 -14 -21 0 -15 -5 -19
-15 -15 -12 4 -15 -3 -15 -29 0 -18 -4 -37 -10 -40 -5 -3 -10 -13 -10 -21 0
-8 -9 -24 -20 -36 -19 -21 -20 -21 -21 -2 0 10 -8 -7 -19 -39 -10 -32 -23 -63
-29 -71 -6 -7 -9 -15 -6 -18 3 -2 -6 -15 -20 -28 -14 -13 -25 -29 -25 -35 0
-6 -13 -21 -30 -33 -16 -13 -30 -28 -30 -35 0 -7 -9 -19 -20 -27 -11 -8 -20
-26 -21 -40 l0 -25 -10 23 c-13 34 -31 17 -23 -24 6 -32 2 -39 -50 -91 -31
-31 -56 -62 -56 -70 0 -7 -7 -13 -15 -13 -25 0 -52 -32 -59 -71 -4 -23 -17
-43 -36 -58 -17 -12 -28 -26 -26 -30 3 -4 -15 -27 -40 -50 -44 -40 -45 -44
-43 -93 3 -48 1 -53 -26 -69 -29 -15 -37 -49 -14 -57 5 -2 9 -8 9 -14 0 -6 -6
-8 -14 -5 -10 4 -13 -7 -12 -46 0 -29 -4 -59 -9 -67 -14 -22 -15 -70 -1 -70 6
0 3 -7 -7 -14 -15 -11 -16 -20 -9 -54 7 -27 6 -44 -1 -51 -17 -17 -30 -13 -24
9 3 12 0 20 -8 20 -17 0 -25 -23 -14 -41 15 -24 10 -34 -47 -98 -35 -38 -62
-60 -71 -57 -8 3 -11 1 -8 -4 3 -6 -1 -10 -9 -10 -9 0 -16 -7 -16 -15 0 -20
-3 -20 91 21 73 32 88 35 135 29 42 -5 66 -2 114 16 33 12 63 19 67 16 7 -8
33 11 33 24 0 5 -12 9 -27 9 -25 0 -26 0 -8 20 10 11 26 20 35 20 19 0 40 19
40 37 0 8 -7 10 -17 6 -16 -6 -16 -5 -4 10 7 9 19 17 26 17 7 0 21 13 32 29
72 111 86 131 92 131 5 0 7 16 4 35 -2 19 0 35 4 34 22 -4 33 4 46 31 9 17 11
30 5 32 -5 2 0 12 12 23 21 19 21 19 14 -1 -5 -15 -4 -16 5 -4 6 8 11 18 11
23 0 11 -27 8 -42 -5 -7 -7 -24 -15 -38 -17 -14 -1 -33 -7 -42 -12 -9 -5 -21
-9 -27 -9 -12 0 119 127 174 169 25 19 38 40 50 81 9 30 28 74 41 97 13 23 41
89 60 145 44 127 107 265 112 249 2 -7 -1 -18 -7 -24 -6 -6 -11 -19 -11 -29 0
-14 4 -13 25 7 20 20 34 25 78 25 30 0 72 6 94 14 l39 14 -4 -29 c-2 -16 -8
-32 -13 -34 -12 -8 1 -35 17 -35 8 0 14 7 14 16 0 8 -4 12 -10 9 -5 -3 -10 -1
-10 5 0 6 7 13 15 16 8 4 13 9 10 14 -2 4 3 16 11 26 15 18 15 18 10 -6 -2
-14 -8 -46 -11 -73 -7 -46 -25 -76 -25 -40 0 23 -40 42 -68 32 -22 -8 -31 -29
-12 -29 6 0 10 -8 11 -17 0 -11 3 -13 6 -5 6 16 33 16 33 0 0 -7 -32 -28 -70
-45 -51 -24 -84 -33 -123 -33 l-53 0 -12 -62 c-7 -35 -17 -95 -22 -134 -5 -40
-14 -84 -20 -100 -6 -15 -8 -34 -5 -43 3 -8 3 -50 -1 -93 -5 -65 -9 -78 -24
-78 -25 0 -42 -25 -46 -68 -3 -37 -8 -54 -41 -147 -26 -71 -101 -185 -123
-185 -9 0 -28 -15 -41 -34 -13 -19 -30 -37 -39 -39 -8 -2 -25 -33 -38 -68 -26
-73 -27 -83 -9 -73 10 6 10 4 0 -7 -16 -16 -17 -33 -2 -23 11 6 23 10 116 33
25 7 40 6 44 -1 4 -7 14 -6 29 2 l23 12 -7 -63 c-14 -135 -51 -381 -85 -569
-16 -85 -32 -179 -35 -208 l-7 -52 93 0 c51 0 189 -10 305 -22 117 -12 214
-20 217 -17 4 5 12 139 27 474 8 190 14 254 25 266 8 8 14 20 14 25 0 5 -5 2
-11 -6 -8 -12 -9 -9 -5 13 5 23 1 30 -26 48 -31 19 -31 20 -8 17 19 -2 25 1
24 15 -2 18 -2 18 36 22 51 5 60 -72 9 -86 -13 -4 -17 -7 -9 -8 27 -2 28 -33
16 -406 -5 -148 -10 -297 -10 -329 l-1 -60 33 -3 c26 -3 32 -1 32 14 0 10 4
83 10 163 5 80 12 237 15 350 14 418 11 398 44 380 10 -5 21 -7 24 -4 13 13
18 -89 13 -248 -10 -278 -27 -642 -31 -655 -4 -13 17 -23 48 -23 20 0 22 6 25
58 1 31 7 122 12 202 10 141 21 466 20 563 l-1 48 38 -3 38 -3 -1 -115 c0 -63
-6 -207 -13 -320 -6 -113 -14 -258 -18 -322 l-6 -117 34 -5 c19 -3 68 -8 109
-11 193 -13 233 -17 343 -32 68 -9 122 -12 127 -7 14 15 50 637 38 676 -4 16
-6 18 -7 6 -1 -19 -31 -26 -31 -7 0 5 5 7 12 3 8 -5 9 -2 5 10 -4 10 -7 21 -7
24 0 4 -5 0 -10 -8 -7 -10 -12 -12 -17 -4 -5 6 -15 14 -23 17 -8 3 9 6 38 6
l52 1 0 35 c0 41 3 40 -202 55 -75 6 -160 15 -189 20 -28 6 -67 10 -85 10 -19
0 -34 3 -34 6 0 15 30 33 50 29 22 -4 86 -5 195 -2 28 0 98 -3 158 -7 119 -9
107 -16 113 59 2 17 5 255 7 530 5 492 16 954 23 966 2 3 4 61 5 127 0 67 4
124 8 126 3 2 31 -5 61 -15 71 -23 126 -24 134 -3 5 14 16 16 61 10 51 -6 125
-39 125 -56 0 -4 11 -11 25 -14 31 -8 105 -80 105 -102 0 -11 -10 -6 -32 18
-18 20 -53 47 -76 62 -38 24 -43 25 -38 9 3 -11 1 -73 -5 -139 -5 -65 -14
-306 -19 -534 -5 -228 -14 -471 -19 -540 -34 -424 -37 -565 -26 -1080 5 -241
11 -357 19 -362 6 -4 116 -8 244 -8 l232 0 -5 213 c-3 116 -9 255 -14 307 -5
52 -8 115 -8 140 l2 45 -100 1 c-108 1 -193 10 -215 24 -12 7 -12 11 1 26 12
15 12 16 0 9 -10 -6 -12 -4 -6 4 5 9 24 11 64 6 82 -9 235 -10 250 -1 6 4 9
16 6 26 -3 9 -8 147 -11 306 -3 159 -8 325 -12 369 l-7 80 -115 -3 c-191 -5
-233 20 -210 123 5 23 7 52 5 64 -4 21 -1 22 33 16 73 -12 218 -20 262 -14 36
5 28 6 -40 8 -98 2 -240 25 -250 40 -3 6 -3 37 0 68 4 32 2 70 -4 85 -5 15 -8
29 -5 32 2 2 33 -2 69 -10 36 -8 115 -17 177 -21 l111 -6 6 44 c3 24 10 120
15 213 6 92 12 171 16 174 3 3 18 1 33 -4 26 -9 27 -13 27 -74 0 -36 -4 -132
-8 -213 l-8 -148 28 3 c35 4 40 25 51 231 5 86 11 159 13 162 3 2 18 1 35 -3
37 -10 40 -31 25 -182 -22 -211 -22 -190 6 -188 35 3 40 14 47 98 3 41 9 109
13 150 4 41 7 80 7 85 1 6 10 10 21 10 17 0 20 -6 19 -50 0 -28 -4 -77 -9
-110 -10 -71 -13 -137 -8 -147 2 -4 20 -1 41 6 20 7 83 19 139 26 108 13 212
5 333 -25 30 -8 56 -12 58 -10 3 2 7 26 9 52 3 26 10 53 15 59 6 8 -12 23 -57
48 -36 20 -69 36 -74 36 -4 0 -16 9 -27 21 l-19 21 42 -17 c23 -9 48 -15 55
-12 8 3 6 6 -5 6 -19 1 -127 53 -167 81 -14 9 -42 20 -64 23 -45 7 -56 15 -36
27 11 7 11 11 1 24 -24 28 -50 29 -71 3 -14 -18 -26 -23 -45 -20 -31 6 -32 20
-2 51 22 23 22 24 3 38 -11 8 -28 14 -37 14 -10 0 -20 4 -24 10 -3 5 -47 30
-97 55 -50 25 -106 59 -125 75 -18 16 -46 33 -61 36 -54 13 -109 64 -148 135
l-20 39 -30 -28 c-36 -35 -55 -58 -139 -169 0 -2 -25 20 -54 47 -29 28 -60 50
-68 50 -13 0 -13 3 -3 15 11 13 10 14 -3 9 -9 -3 -31 3 -49 14 -18 11 -59 25
-90 32 -32 6 -58 14 -58 17 0 18 124 174 175 219 l60 53 -60 58 c-61 59 -136
113 -213 153 -23 12 -47 31 -53 42 -9 16 -8 19 2 13 9 -6 11 -4 6 7 -4 12 -1
14 15 10 15 -4 17 -7 6 -14 -8 -5 -3 -6 14 -2 33 7 72 -15 168 -96 52 -43 119
-111 136 -139 2 -1 8 -1 14 1 21 7 -71 113 -178 206 -116 101 -147 121 -252
156 -38 13 -81 32 -97 43 -62 42 -103 50 -103 19 0 -17 33 -46 52 -46 9 0 33
-16 54 -36 22 -19 60 -45 86 -57 38 -17 45 -24 38 -38 -5 -9 -6 -19 -3 -23 3
-3 -1 -6 -10 -6 -18 0 -79 32 -116 61 -13 11 -28 19 -34 19 -5 0 -35 20 -65
45 -31 25 -61 44 -68 41 -7 -3 -10 2 -7 15 6 23 -37 67 -148 152 -42 32 -81
69 -87 82 -11 23 -10 24 15 14 15 -6 53 -28 85 -50 32 -21 60 -39 64 -39 8 0
26 -20 53 -57 25 -37 70 -48 51 -13 -6 11 -28 31 -50 45 -21 13 -71 56 -109
94 -51 51 -83 74 -114 83 -52 15 -114 67 -123 102 -7 29 -64 84 -64 62 0 -8
11 -28 25 -44 30 -36 32 -46 5 -32 -24 13 -24 22 0 -142 11 -73 24 -185 30
-248 6 -63 15 -119 20 -124 6 -6 39 -12 74 -14 56 -4 65 -7 69 -26 3 -11 21
-84 41 -161 20 -77 36 -143 36 -147 0 -12 -169 -9 -192 3 -13 7 -18 17 -15 32
3 12 2 31 -2 42 -4 10 -11 -57 -14 -150 -19 -481 2 -767 81 -1078 l47 -188 65
-4 c72 -4 155 -28 184 -54 29 -26 35 -54 26 -121 -10 -70 -17 -82 -33 -59 -7
8 -21 18 -31 22 -17 7 -17 5 -5 -10 7 -10 22 -25 33 -34 17 -15 18 -21 8 -62
-7 -25 -13 -61 -13 -79 -1 -24 -3 -27 -6 -10 -2 12 -9 20 -14 17 -5 -4 -9 -2
-9 4 0 5 5 13 10 16 6 3 10 14 10 23 0 14 -2 15 -9 3 -7 -12 -13 -12 -24 -3
-7 7 -16 9 -20 6 -5 -5 -55 13 -99 37 -12 6 -18 6 -18 -1 0 -6 24 -21 53 -34
28 -14 58 -34 65 -46 12 -20 12 -20 -10 -6 -13 8 -37 17 -55 21 -25 5 -32 3
-37 -13 -6 -18 -10 -18 -74 15 -37 19 -76 43 -87 53 -11 10 -31 23 -45 29 -37
16 -53 29 -135 108 -41 40 -92 82 -115 93 -77 39 -168 62 -236 58 -60 -3 -63
-2 -58 17 16 51 25 66 34 60 8 -5 7 -11 -1 -21 -9 -11 -9 -14 1 -14 6 0 14 9
17 20 3 10 13 21 22 24 24 7 75 -1 79 -13 2 -6 12 -6 28 1 18 8 28 9 32 1 9
-13 62 -26 62 -15 0 13 -60 30 -130 38 -36 4 -68 12 -72 18 -6 8 -11 7 -17 -4
-17 -26 -24 -2 -15 52 l9 53 45 0 c25 0 63 8 84 19 31 15 53 17 103 13 79 -8
99 -18 113 -62 17 -52 30 -42 30 23 0 32 11 119 25 193 28 154 44 481 24 505
-6 8 -36 25 -67 40 -52 24 -62 26 -140 20 -46 -4 -90 -10 -98 -13 -10 -3 -14
2 -14 18 0 19 10 28 47 43 76 32 129 31 193 -1 30 -16 60 -39 67 -53 l12 -24
6 26 c11 42 2 93 -16 93 -8 0 -39 11 -68 24 -50 24 -55 24 -124 12 -104 -19
-100 -19 -101 12 -1 22 3 27 21 27 13 0 23 4 23 9 0 11 75 27 110 23 23 -3 63
-18 119 -45 13 -6 27 -21 32 -32 10 -23 4 252 -10 455 -9 129 -10 135 -37 156
-33 27 -66 34 -156 34 -67 0 -69 1 -62 23 4 12 7 41 6 64 0 31 4 43 16 46 11
3 9 5 -6 6 -29 1 -19 21 11 22 12 0 40 7 62 14 l40 14 -49 -5 c-43 -3 -48 -2
-32 9 15 11 19 28 19 86 1 64 3 72 22 77 25 6 66 -8 88 -31 16 -15 17 -15 17
5 0 64 -116 448 -161 531 -5 10 -18 19 -29 19 -25 0 -43 33 -28 48 9 9 7 17
-7 32 -10 11 -23 20 -30 20 -23 0 -34 21 -22 42 10 16 8 23 -16 44 -16 13 -33
40 -38 59 -16 56 -29 41 -29 -32 0 -36 -3 -64 -6 -61 -3 3 -5 25 -6 48 0 23
-6 54 -13 67 l-13 25 -4 -23z m808 -1229 c3 -14 19 -77 35 -141 16 -64 29
-121 29 -127 0 -7 -15 -12 -36 -12 -31 0 -36 3 -31 20 3 11 1 20 -3 20 -11 0
-30 57 -30 91 0 21 6 29 23 32 20 4 19 4 -4 6 -26 1 -41 26 -44 68 0 7 -6 18
-13 25 -16 16 -16 38 1 39 10 0 10 2 0 6 -22 8 -14 22 15 25 30 4 50 -14 58
-52z m128 -442 c4 -22 10 -46 13 -52 4 -5 8 -24 10 -41 1 -16 7 -48 14 -70 49
-177 79 -360 79 -479 0 -137 -17 -287 -39 -354 -23 -68 -32 -46 -15 35 19 91
30 359 15 376 -6 9 -9 32 -6 56 4 32 0 51 -17 81 -17 30 -20 42 -11 48 9 6 6
35 -12 121 -13 63 -29 146 -34 185 -6 39 -13 86 -17 104 -4 19 -2 32 3 32 6 0
13 -19 17 -42z m-877 -242 c3 -3 -5 -10 -18 -15 -13 -5 -18 -10 -11 -10 6 -1
12 -8 12 -16 0 -8 5 -15 10 -15 6 0 10 -9 10 -20 0 -11 -5 -20 -11 -20 -6 0
-8 -12 -6 -29 5 -26 2 -29 -31 -35 -21 -3 -42 -1 -51 7 -14 10 -14 10 -3 -4
11 -14 9 -17 -10 -23 -13 -3 -42 -6 -66 -6 -39 0 -42 2 -38 23 9 51 19 77 27
77 5 0 9 14 9 30 0 17 9 39 21 51 18 18 29 20 85 16 36 -3 68 -8 71 -11z m347
-89 c16 -15 36 -27 44 -27 10 0 13 -8 10 -25 -3 -14 -1 -25 5 -25 6 0 7 -3 4
-7 -9 -8 -57 17 -57 30 0 5 7 7 15 3 17 -6 21 9 4 20 -6 3 -15 2 -21 -4 -7 -7
-19 -7 -35 -1 -14 5 -28 7 -32 5 -4 -3 -47 -6 -96 -7 -50 -1 -93 -7 -97 -13
-5 -6 -8 -2 -8 10 0 46 71 75 175 71 49 -2 65 -8 89 -30z m204 -163 c29 -12
57 -14 137 -9 54 4 103 9 108 12 4 2 30 2 58 -2 40 -6 52 -12 63 -33 l14 -27
-182 0 c-160 1 -185 3 -214 20 -17 11 -32 27 -32 37 0 22 1 22 48 2z"/>
<path d="M4085 4186 c-3 -9 -7 -23 -10 -31 -2 -8 0 -15 6 -15 6 0 7 -5 4 -10
-4 -6 -15 -8 -26 -5 -10 4 -27 2 -36 -4 -15 -9 -13 -10 14 -11 17 0 34 -3 37
-8 2 -4 -5 -32 -16 -62 -11 -30 -20 -61 -21 -68 0 -9 -9 -12 -26 -9 -61 12
-115 -42 -157 -157 -24 -66 -94 -377 -94 -417 0 -21 2 -21 73 -15 211 20 230
18 208 -21 -8 -16 -22 -20 -72 -22 -34 -1 -67 -5 -73 -9 -6 -3 -45 -9 -86 -12
-72 -5 -75 -6 -78 -31 -3 -24 1 -27 40 -33 47 -6 80 -4 180 14 60 11 71 10
105 -7 23 -10 39 -26 41 -38 3 -19 -2 -20 -65 -17 -37 2 -95 -3 -128 -10 -57
-13 -135 -10 -177 7 -13 5 -19 0 -24 -20 -4 -17 -2 -30 5 -35 26 -16 151 -33
197 -26 131 17 164 19 179 6 8 -7 13 -16 10 -20 -3 -5 0 -12 7 -17 8 -5 -20
-11 -67 -15 -44 -3 -111 -9 -150 -13 -52 -5 -84 -3 -124 9 -30 9 -60 16 -67
16 -12 0 -25 -47 -43 -160 -14 -88 -40 -277 -44 -321 l-3 -36 60 -12 c33 -7
108 -31 166 -53 136 -53 170 -59 253 -47 77 12 96 4 98 -40 2 -23 2 -24 6 -3
6 28 19 28 27 0 9 -35 7 -39 -11 -36 -14 2 -17 -3 -15 -21 1 -13 9 -29 17 -35
10 -7 17 -34 20 -76 6 -87 30 -241 50 -314 12 -45 15 -105 14 -260 -1 -173 2
-211 19 -271 21 -76 67 -175 81 -175 8 0 64 -120 59 -126 -7 -6 -64 53 -61 63
2 6 -2 17 -10 25 -8 8 -17 23 -21 35 -4 12 -18 28 -31 37 -23 15 -37 55 -15
41 6 -3 10 -1 10 4 0 6 -6 11 -14 11 -8 0 -21 18 -30 40 -19 49 -21 84 -3 75
6 -4 3 1 -8 9 -17 14 -19 30 -20 134 -1 64 2 131 6 147 4 17 9 65 12 108 3 65
1 81 -14 99 -11 11 -19 29 -19 39 0 11 -9 19 -22 21 -20 3 -23 10 -26 58 -4
62 -11 70 -65 70 -21 0 -69 13 -107 30 -80 35 -129 46 -269 60 -173 17 -158
23 -166 -67 -3 -43 -8 -104 -11 -135 l-6 -58 -36 0 c-54 -1 -117 -17 -181 -47
-31 -15 -59 -26 -63 -25 -5 1 -8 -5 -8 -13 0 -9 -12 -21 -27 -27 -16 -7 -42
-23 -59 -35 -17 -13 -38 -23 -47 -23 -10 0 -17 -4 -17 -9 0 -5 -22 -17 -50
-27 -51 -18 -65 -34 -31 -34 11 0 23 -5 26 -11 4 -6 14 -8 22 -4 14 5 15 -10
10 -127 -6 -145 -4 -147 13 -15 11 81 14 87 35 87 13 0 26 -7 29 -16 3 -9 13
-14 21 -11 8 4 16 -1 20 -12 5 -18 52 -46 69 -42 5 1 6 -71 3 -168 l-6 -170
27 -4 c24 -4 24 -4 -5 -6 -30 -1 -33 -4 -34 -33 -1 -18 -1 -36 0 -40 0 -4 -4
-40 -9 -80 -9 -68 -50 -571 -50 -615 0 -16 12 -21 83 -31 180 -26 452 -35 469
-15 17 20 4 549 -16 635 -19 81 -15 305 5 292 4 -2 10 0 14 6 3 5 -1 10 -9 10
-12 0 -16 11 -16 44 0 47 15 62 51 51 22 -7 26 -57 6 -73 -19 -16 -21 -72 -2
-72 18 0 18 -5 4 -50 -15 -48 -12 -241 7 -380 12 -83 15 -164 12 -288 -4 -140
-2 -175 9 -179 7 -3 13 -9 13 -15 0 -5 -4 -6 -10 -3 -6 3 -10 -4 -10 -18 0
-13 6 -24 14 -24 7 0 13 5 12 11 0 6 6 38 13 71 14 61 10 373 -7 515 -4 36 -3
106 1 155 4 50 9 104 11 120 8 92 19 134 34 138 15 4 15 5 -1 6 -14 1 -16 7
-11 28 12 55 13 57 30 42 13 -11 15 -25 10 -70 -5 -39 -3 -60 5 -64 7 -5 9
-26 5 -64 -16 -159 -21 -235 -19 -321 1 -52 1 -188 2 -301 l0 -206 25 4 c21 4
26 11 27 37 1 17 3 119 5 226 2 107 6 223 9 257 l7 63 30 -31 31 -31 -7 -166
c-3 -92 -9 -208 -12 -258 l-7 -92 109 -7 c120 -7 202 -23 313 -60 40 -14 97
-25 125 -25 l52 0 -3 217 -4 218 -33 30 c-37 34 -61 94 -52 131 4 15 2 32 -5
40 -8 10 -8 22 0 44 10 31 6 60 -10 60 -14 0 -29 37 -23 55 4 9 13 14 21 11 8
-3 12 -2 10 2 -11 18 -17 102 -7 102 13 0 13 47 0 55 -5 3 -10 1 -10 -5 0 -6
-15 3 -32 19 -29 27 -58 40 -58 27 0 -3 19 -23 43 -46 23 -23 37 -44 31 -46
-7 -3 -9 -23 -6 -53 5 -57 -11 -75 -27 -29 -22 64 -45 108 -55 108 -14 0 -31
35 -67 135 -23 65 -29 97 -29 168 0 48 3 87 8 87 12 0 68 -49 56 -50 -17 0
-25 -27 -18 -56 8 -32 23 -31 16 2 -4 21 -1 25 14 22 11 -2 24 -12 31 -23 10
-17 11 -13 6 22 -7 51 7 56 44 16 l25 -26 -5 59 c-13 136 -25 201 -41 227 -15
22 -17 38 -11 87 4 33 11 60 16 60 5 0 9 -8 9 -18 0 -10 13 -28 30 -40 16 -12
84 -90 151 -173 115 -143 119 -149 80 -129 -49 24 -129 41 -159 33 -22 -5 -32
-43 -12 -43 6 0 8 -10 4 -24 -5 -23 -1 -26 113 -61 219 -68 281 -103 407 -232
56 -57 78 -74 85 -65 12 20 -27 92 -46 85 -11 -4 -14 -2 -9 5 4 7 2 12 -4 12
-6 0 -9 4 -6 9 3 5 -5 24 -17 43 -13 18 -22 39 -19 46 5 16 -25 16 -31 0 -3
-7 -6 3 -6 22 0 21 2 30 7 22 7 -9 13 -8 27 8 12 13 25 18 39 14 15 -4 17 -3
7 4 -11 8 -10 12 8 21 24 13 29 51 7 51 -8 0 -18 -4 -21 -10 -3 -5 -14 -10
-23 -10 -13 1 -11 6 10 23 24 20 27 27 23 69 -3 26 -1 50 5 53 15 9 12 55 -4
55 -21 0 -36 24 -29 48 3 12 12 22 19 22 8 0 17 13 20 30 4 16 13 35 20 41 16
13 1 39 -22 39 -24 0 -15 19 12 26 19 5 29 2 36 -10 13 -22 61 -46 96 -46 35
0 92 -19 92 -30 0 -4 -8 -11 -17 -14 -15 -6 -14 -8 4 -21 11 -8 39 -17 62 -21
23 -4 44 -11 47 -15 3 -5 22 -17 42 -26 27 -12 32 -17 20 -20 -32 -8 -19 -23
20 -23 21 0 43 -5 50 -12 25 -25 92 -13 92 16 0 9 9 12 26 8 23 -4 25 -2 19
17 -9 28 22 42 40 17 10 -13 18 -15 41 -6 15 6 49 12 76 14 42 2 48 0 48 -17
0 -10 5 -17 13 -14 6 2 11 11 9 21 -2 12 5 16 25 16 43 0 157 26 181 41 13 8
20 20 17 30 -4 13 0 15 17 12 17 -3 26 2 33 18 9 19 34 25 28 7 -3 -9 25 1 53
19 11 7 24 10 27 6 4 -3 7 1 7 9 0 9 9 18 20 21 30 8 24 22 -10 22 -17 0 -28
-5 -26 -10 2 -6 -5 -11 -15 -11 -11 0 -19 6 -19 13 0 12 4 15 33 17 6 1 15 6
19 11 13 17 9 65 -4 65 -7 0 22 17 65 38 43 21 75 41 72 44 -4 3 2 9 12 12 27
9 58 116 33 116 -21 0 -9 31 18 43 32 14 58 37 43 37 -20 0 32 43 54 45 12 2
37 11 56 21 19 10 37 17 42 16 4 -1 13 9 19 23 7 16 19 25 35 25 29 0 30 16 1
24 -34 9 -38 8 -38 -10 0 -11 -6 -14 -22 -8 -28 9 -38 9 -60 -1 -11 -4 -18 -3
-18 4 0 6 5 11 10 11 15 0 12 27 -4 33 -10 4 -18 -4 -25 -23 -9 -27 -13 -29
-50 -26 -22 2 -52 11 -67 20 -25 17 -26 17 -22 -1 2 -11 14 -19 31 -21 33 -4
36 -22 3 -22 -13 0 -26 -5 -28 -12 -3 -9 -6 -9 -12 0 -4 7 -2 12 4 12 8 0 8 6
0 20 -6 11 -19 20 -29 20 -11 0 -22 7 -25 16 -4 11 -13 13 -27 9 -19 -6 -21
-4 -17 19 4 21 3 24 -8 15 -20 -16 -36 -2 -24 21 14 26 12 40 -5 40 -8 0 -15
-5 -15 -11 0 -6 -7 -3 -16 5 -8 9 -21 16 -27 16 -7 0 -4 5 7 11 13 8 20 8 26
-1 12 -19 56 -8 52 14 -3 16 1 17 23 12 25 -6 26 -5 12 9 -9 8 -30 15 -47 15
-29 0 -30 1 -16 16 9 8 21 24 26 35 6 10 18 19 28 20 30 2 -30 17 -73 18 -38
2 -39 2 -20 17 11 8 26 12 34 9 8 -3 23 4 33 15 10 11 25 20 33 20 8 0 17 5
20 10 4 6 -14 10 -47 10 -48 0 -55 -3 -73 -30 -11 -17 -29 -33 -40 -36 -12 -3
-21 -13 -22 -23 -1 -14 5 -16 30 -13 l31 5 -25 -30 c-30 -37 -83 -75 -101 -72
-22 3 -76 -21 -82 -37 -3 -9 -11 -12 -17 -8 -7 4 -9 3 -6 -3 4 -7 -8 -12 -33
-15 -22 -2 -40 -1 -40 3 0 3 -14 4 -30 1 -25 -3 -29 -1 -24 12 5 12 0 16 -20
16 -14 0 -26 -5 -26 -11 0 -5 4 -8 9 -5 5 3 11 -3 14 -14 3 -11 2 -20 -1 -21
-35 -5 -82 -4 -82 2 0 5 -22 7 -50 6 -54 -2 -65 -13 -25 -23 15 -4 32 -1 42 7
14 12 16 12 11 -1 -5 -17 -51 -25 -76 -14 -10 3 -39 8 -67 10 -118 7 -155 15
-155 33 0 18 -100 73 -183 100 -20 7 -42 21 -47 32 -6 10 -28 37 -49 60 -34
37 -42 41 -70 36 -17 -4 -31 -3 -31 2 0 19 27 29 70 25 l45 -3 -27 17 c-16 9
-28 21 -28 27 0 19 -18 38 -29 31 -8 -5 -5 -16 8 -35 l20 -28 -29 0 c-21 0
-27 4 -22 16 5 14 3 14 -11 3 -17 -15 -41 -7 -31 9 3 6 -2 17 -12 24 -16 12
-17 16 -5 24 7 5 10 14 6 20 -5 9 -10 9 -21 0 -12 -9 -18 -9 -27 0 -9 9 -9 14
2 21 12 7 12 11 2 24 -16 19 -41 10 -41 -16 0 -17 -3 -18 -15 -8 -18 15 -19
36 -2 44 6 4 2 4 -10 2 -13 -2 -26 0 -29 6 -3 5 -19 6 -36 3 -21 -5 -35 -2
-50 12 -21 18 -21 18 -15 -5 5 -20 2 -22 -16 -16 -21 6 -32 17 -40 39 -3 6 -8
7 -12 3 -12 -12 12 -58 28 -53 22 9 59 -34 53 -61 -4 -16 -2 -24 7 -24 14 0
15 39 2 75 -7 17 -4 16 17 -5 14 -14 23 -31 21 -37 -3 -7 3 -16 13 -20 10 -4
19 -2 22 5 4 13 35 0 62 -26 13 -14 15 -14 18 1 3 13 6 14 16 5 10 -9 9 -15
-5 -29 -9 -9 -25 -19 -36 -21 -10 -2 -17 -10 -16 -16 2 -7 -4 -12 -13 -12 -12
0 -14 7 -9 33 6 26 5 30 -6 20 -7 -7 -23 -13 -36 -13 -13 0 -26 -7 -29 -15 -4
-9 -16 -15 -28 -14 -11 1 -32 1 -46 -1 -22 -2 -21 -3 8 -9 36 -7 40 -26 5 -26
-11 0 -25 -3 -29 -7 -4 -5 -2 -8 4 -8 7 0 12 -7 12 -15 0 -24 -17 -17 -24 10
-4 14 -13 25 -21 25 -23 0 -18 -39 8 -60 22 -18 19 -38 -5 -26 -66 35 -81 45
-65 46 21 0 23 20 2 20 -18 0 -20 16 -2 24 6 3 -1 4 -18 3 -25 -2 -31 2 -33
23 -2 14 -8 29 -13 35 -16 16 -10 34 14 38 12 2 7 3 -10 1 -18 -1 -33 1 -33 6
0 5 -11 12 -25 16 -26 6 -47 37 -59 87 -5 20 -14 29 -34 33 -15 3 -36 12 -46
20 -19 13 -19 14 -1 34 17 19 17 20 -9 29 -30 12 -36 36 -6 26 15 -5 20 -2 20
12 0 36 -24 70 -55 79 -37 11 -41 40 -5 37 l25 -3 -21 18 c-11 9 -19 23 -16
30 2 6 -2 12 -8 12 -7 0 -9 8 -5 20 4 11 2 20 -4 20 -6 0 -11 -4 -11 -10 0 -5
-7 -10 -15 -10 -19 0 -19 10 1 24 14 11 25 79 13 90 -2 2 -15 6 -28 8 -30 4
-41 -21 -12 -29 25 -6 26 -10 7 -29 -19 -19 -26 -18 -26 5 0 10 -9 21 -20 24
-28 7 -25 20 10 45 24 18 30 20 30 7 0 -8 5 -15 11 -15 6 0 9 6 6 14 -3 7 0
19 6 26 10 10 7 12 -11 7 -27 -6 -52 1 -52 15 0 5 9 6 20 3 17 -6 16 -2 -8 22
-15 15 -37 33 -48 39 -20 12 -33 74 -15 74 6 0 11 5 11 10 0 6 -7 10 -15 10
-8 0 -15 5 -15 12 0 6 -7 19 -16 29 -21 23 -22 110 -1 142 17 27 14 37 -14 37
-14 0 -20 11 -25 52 -5 39 -9 48 -15 33 -8 -22 -13 -8 -10 32 1 11 -3 24 -8
28 -6 3 -11 26 -11 50 0 44 -16 70 -25 41z"/>
<path d="M3735 3947 c-14 -10 -25 -25 -25 -33 0 -12 -4 -12 -21 -4 -18 10 -26
6 -64 -35 -33 -36 -51 -48 -77 -51 -130 -11 -277 -38 -360 -66 -105 -35 -124
-50 -31 -25 32 8 95 18 140 21 45 4 123 17 175 30 51 13 95 22 97 20 2 -1 -10
-24 -26 -51 -27 -43 -36 -50 -99 -71 -76 -25 -239 -64 -267 -64 -9 1 -29 -6
-45 -14 -15 -7 -34 -14 -43 -14 -9 0 -24 -9 -34 -20 -18 -20 -18 -22 5 -78 13
-31 29 -64 35 -72 7 -8 27 -41 45 -73 l32 -57 -23 -19 -23 -19 -57 117 c-32
65 -59 109 -62 101 -3 -8 -10 -34 -16 -58 -7 -24 -20 -51 -29 -60 -83 -81
-128 -102 -128 -61 0 13 15 31 42 50 36 25 96 109 77 109 -4 0 0 6 9 13 17 13
33 67 20 67 -8 0 -33 -61 -29 -70 3 -9 -27 -38 -35 -33 -4 2 -24 0 -43 -6 -33
-9 -35 -8 -35 14 0 21 -2 22 -25 12 -14 -7 -28 -22 -31 -34 -4 -14 -39 -43
-96 -79 -82 -52 -238 -187 -238 -206 0 -16 22 -8 58 21 53 42 138 83 159 78
16 -4 15 -6 -4 -12 -14 -4 -23 -15 -23 -27 0 -20 -34 -59 -84 -94 l-29 -21 25
-34 c31 -43 37 -58 54 -144 17 -86 17 -85 1 -85 -8 0 -20 -11 -27 -25 -18 -34
-29 -32 -67 12 -18 21 -32 35 -33 32 0 -3 11 -19 25 -35 14 -16 24 -33 22 -38
-2 -5 -22 -15 -45 -22 -36 -10 -96 -35 -124 -50 -3 -2 -32 23 -65 57 -85 89
-83 89 -161 30 -77 -57 -126 -107 -170 -172 -31 -46 -52 -66 -150 -140 -30
-23 -60 -55 -67 -73 -8 -18 -37 -55 -66 -83 -49 -48 -50 -51 -23 -45 38 7 84
39 78 55 -4 13 25 33 55 39 8 2 22 11 32 20 19 18 154 88 170 88 5 0 9 -43 9
-97 l0 -98 112 -2 c161 -2 238 -11 238 -29 0 -8 -7 -14 -16 -14 -8 0 -13 -4
-10 -8 3 -5 -4 -16 -15 -25 -10 -9 -19 -24 -19 -32 0 -35 -17 -68 -31 -60 -5
4 -12 -1 -16 -11 -5 -15 -19 -16 -117 -11 -72 3 -97 2 -71 -3 22 -5 60 -10 85
-11 58 -3 70 -8 63 -25 -3 -8 -9 -11 -14 -9 -5 3 -11 -7 -15 -22 -15 -71 -27
-95 -51 -104 -13 -5 -21 -13 -18 -19 4 -6 -11 -10 -38 -10 l-44 0 -7 -112
c-18 -320 -36 -460 -75 -613 -10 -38 -26 -101 -34 -140 -9 -38 -26 -110 -38
-160 -11 -49 -25 -126 -29 -170 -20 -190 -42 -344 -56 -398 -8 -32 -12 -66 -9
-77 5 -16 -16 -94 -51 -184 -5 -14 9 -16 115 -16 112 0 121 1 121 19 0 10 7
25 17 32 15 13 15 12 5 -8 -16 -29 -15 -43 3 -43 9 0 17 14 21 38 18 105 90
329 140 435 14 29 22 44 19 34 -3 -11 -8 -31 -11 -45 -3 -15 -15 -56 -25 -91
-22 -73 -22 -74 -9 -66 6 3 10 2 10 -3 0 -6 -7 -12 -15 -16 -8 -3 -15 -10 -15
-16 0 -6 11 -3 25 6 19 12 23 20 15 29 -12 15 1 84 26 143 9 21 24 66 34 102
45 163 84 288 101 320 24 45 24 27 0 -41 -17 -51 -47 -211 -53 -289 -2 -27 0
-34 12 -31 8 2 69 3 135 3 123 -1 203 -10 333 -38 40 -9 75 -15 76 -13 2 2 16
148 30 324 30 371 34 412 42 442 5 18 1 25 -22 33 -16 6 -24 14 -18 18 5 4 10
12 9 19 0 19 -14 27 -28 15 -7 -6 -18 -7 -26 -3 -23 15 6 23 54 15 l45 -6 0
35 c0 20 4 58 9 84 6 26 17 95 26 152 9 57 22 110 29 116 6 7 38 22 70 34 136
51 168 72 172 114 3 37 33 112 68 169 6 9 7 20 3 24 -7 8 -50 -34 -67 -66 -24
-44 -131 -49 -254 -12 -38 12 -72 19 -77 16 -4 -2 -31 -48 -60 -101 -32 -59
-59 -98 -71 -101 -14 -3 -16 -7 -7 -13 22 -13 -16 -59 -51 -59 -16 0 -32 4
-35 10 -9 14 13 50 31 50 11 0 14 6 10 16 -4 10 4 28 19 46 15 17 24 37 21 45
-3 8 -2 11 4 8 5 -3 14 4 20 16 8 15 9 19 1 15 -6 -4 -11 -2 -11 3 0 6 6 11
14 11 7 0 17 8 20 18 10 28 28 54 91 131 81 99 89 111 77 111 -6 0 -14 -9 -17
-20 -3 -11 -13 -20 -21 -20 -7 0 -24 -17 -38 -37 -13 -21 -37 -54 -55 -73 -17
-19 -31 -41 -31 -47 0 -7 -9 -13 -20 -13 -12 0 -26 -12 -36 -32 -18 -35 -59
-78 -75 -78 -5 0 -9 -5 -9 -11 0 -6 7 -8 16 -5 10 4 6 -6 -11 -25 -14 -18 -35
-49 -46 -70 -21 -42 -59 -60 -84 -39 -17 14 -5 53 30 90 26 29 65 102 65 124
0 8 -8 17 -17 19 -15 4 -16 5 -2 6 21 1 29 28 35 120 8 110 27 187 47 183 10
-2 17 2 17 8 0 5 5 10 10 10 6 0 10 -18 10 -40 0 -40 0 -40 40 -40 34 0 41 4
46 24 3 13 15 33 27 44 23 22 105 43 94 25 -4 -6 3 -13 16 -17 31 -8 49 -7 43
2 -2 4 11 32 30 62 18 30 34 63 34 72 0 9 4 19 9 22 5 3 11 16 14 28 6 22 6
22 -14 -2 l-21 -25 7 45 c3 25 8 119 10 210 10 353 17 405 69 506 26 52 51 75
95 89 14 4 32 15 40 25 22 24 143 70 185 70 33 0 34 -1 23 -25 -10 -20 -19
-24 -50 -23 -20 1 -40 -2 -44 -5 -3 -4 8 -7 25 -7 36 0 62 -9 62 -21 0 -5 -14
-6 -32 -2 -22 4 -29 3 -24 -6 4 -6 12 -9 17 -5 5 3 16 0 24 -6 17 -14 20 -56
5 -65 -5 -3 -10 -17 -10 -30 0 -14 -11 -49 -25 -79 -47 -102 -47 -106 -22
-116 l22 -9 -23 0 c-14 -1 -26 -10 -32 -25 -5 -13 -14 -27 -19 -31 -19 -11
-12 -32 12 -39 l22 -6 -24 -20 c-13 -11 -29 -20 -36 -20 -14 0 -19 -11 -30
-67 -4 -18 -10 -35 -15 -38 -5 -3 -18 -26 -30 -53 -13 -26 -40 -84 -61 -128
-22 -45 -39 -84 -39 -88 0 -9 -80 -110 -91 -114 -5 -2 -6 -8 -3 -14 3 -5 -3
-12 -15 -15 -12 -3 -21 -13 -21 -23 0 -9 -11 -34 -25 -54 -39 -58 -29 -56 26
4 28 30 45 45 39 32 -12 -25 -14 -24 65 -41 54 -11 83 -14 131 -12 24 1 33 7
38 24 58 204 121 459 133 540 5 30 2 37 -11 37 -19 0 -20 5 -6 30 6 11 17 17
24 14 10 -4 16 5 21 28 13 62 103 363 138 463 20 55 32 101 27 103 -5 2 28 76
73 166 75 148 125 259 141 311 5 18 2 21 -24 20 -16 0 -41 -8 -55 -18z m-902
-1309 c3 -29 2 -102 -2 -163 -9 -121 -3 -156 18 -100 7 19 17 33 22 30 5 -4 9
5 9 19 0 35 10 56 26 56 8 0 14 5 14 10 0 6 20 10 45 10 l44 0 -24 -37 c-16
-23 -23 -43 -19 -56 4 -11 2 -17 -4 -14 -5 4 -8 -4 -7 -16 2 -37 -12 -54 -52
-61 -21 -4 -46 -9 -55 -12 -13 -4 -16 -1 -12 10 3 9 1 16 -5 16 -7 0 -14 -8
-17 -17 -20 -63 -24 -49 -18 62 4 66 7 148 7 182 0 40 3 60 10 56 6 -4 7 11 3
42 -5 28 -4 45 2 41 5 -3 12 -29 15 -58z m-98 -1293 c28 -7 44 -14 37 -14 -7
-1 -10 -5 -7 -11 3 -5 -1 -10 -10 -10 -9 0 -13 -5 -10 -11 4 -6 13 -8 21 -5 7
3 16 0 20 -5 4 -7 -10 -8 -42 -3 -27 4 -93 8 -146 7 -96 0 -109 5 -90 33 22
33 142 43 227 19z"/>
<path d="M7929 3950 c13 -11 62 -32 110 -46 101 -30 118 -37 157 -71 48 -42
97 -70 136 -77 21 -4 41 -13 45 -20 20 -33 80 -46 90 -21 8 22 -23 43 -76 51
-23 4 -38 10 -32 14 18 11 -4 25 -94 60 -44 17 -99 40 -123 51 -24 12 -48 22
-55 23 -7 1 -17 5 -24 9 -16 10 -133 47 -147 47 -6 -1 0 -10 13 -20z"/>
<path d="M7961 3876 c7 -14 18 -26 25 -26 6 0 42 -9 79 -21 57 -17 78 -31 127
-80 33 -32 65 -59 71 -59 7 0 32 -18 56 -40 24 -22 49 -40 56 -40 8 0 22 -3
32 -6 17 -6 17 -6 -1 8 -10 8 -15 17 -10 21 15 9 43 -17 41 -38 -2 -14 9 -22
41 -31 24 -7 57 -24 73 -38 17 -15 36 -26 42 -26 34 0 123 -56 193 -121 43
-41 96 -87 116 -103 21 -15 59 -58 85 -95 25 -36 48 -68 50 -70 1 -2 6 -2 9 2
11 10 -108 172 -155 209 -25 21 -80 70 -121 109 -99 95 -129 117 -190 140 -28
11 -61 29 -73 40 -14 13 -30 18 -44 14 -13 -3 -23 -1 -23 5 0 5 -7 10 -15 10
-9 0 -18 6 -21 14 -3 8 -25 19 -49 25 -28 7 -66 30 -105 64 -34 28 -77 65 -95
81 -19 16 -63 37 -102 48 -37 11 -76 22 -86 25 -16 5 -16 3 -6 -21z"/>
<path d="M3395 3730 c-44 -10 -123 -24 -175 -30 -117 -15 -210 -58 -210 -97 0
-10 8 -7 30 8 16 12 27 25 25 29 -2 4 14 7 37 8 101 4 306 49 383 84 33 14 36
17 15 17 -14 0 -61 -9 -105 -19z"/>
<path d="M8514 3678 c-9 -14 19 -35 62 -47 32 -9 45 -19 200 -162 45 -42 102
-91 126 -107 25 -17 66 -61 91 -100 26 -38 58 -79 72 -92 l24 -23 43 34 c69
53 110 88 155 130 41 38 41 40 20 48 -140 55 -214 94 -280 148 -16 13 -32 21
-36 19 -4 -3 -23 9 -41 26 -43 38 -109 68 -180 78 -30 5 -63 11 -73 15 -13 6
-16 3 -11 -10 6 -16 5 -16 -17 -4 -13 7 -28 12 -33 11 -5 -2 -4 3 3 11 9 12 4
16 -33 26 -57 14 -83 14 -92 -1z"/>
<path d="M4772 3614 c-36 -15 -38 -20 -16 -49 13 -17 16 -18 25 -5 7 11 9 3 7
-30 l-3 -45 45 4 c25 1 42 0 38 -4 -12 -12 32 -87 47 -81 7 2 20 -5 28 -17 8
-12 29 -36 47 -54 27 -26 31 -37 26 -59 -6 -23 -5 -26 7 -15 10 8 17 9 22 1 3
-5 1 -10 -5 -10 -6 0 -8 -5 -5 -10 7 -12 -12 -33 -37 -43 -10 -3 -18 -13 -18
-22 0 -9 8 -19 18 -22 9 -4 23 -13 31 -21 7 -7 20 -11 27 -8 10 4 14 -2 14
-19 0 -13 5 -27 10 -30 6 -3 10 -16 10 -28 1 -19 2 -20 13 -7 7 9 24 14 40 12
34 -4 35 11 1 27 -20 9 -30 9 -40 0 -16 -13 -19 2 -4 17 8 8 7 19 -1 37 -10
21 -9 29 5 42 9 9 16 12 16 6 0 -6 11 -13 24 -17 13 -3 35 -19 47 -36 28 -35
51 -49 93 -53 17 -2 23 -1 14 1 -10 3 -18 12 -18 20 0 8 -4 14 -10 14 -18 0
-11 18 10 25 15 5 19 12 14 31 -6 25 10 34 19 12 4 -8 8 -4 12 10 4 12 11 22
15 22 4 0 10 11 13 26 3 18 -3 33 -25 55 -30 29 -38 33 -70 30 -12 -2 -18 5
-18 19 0 25 -19 60 -42 78 -10 7 -18 19 -18 26 0 17 -52 28 -61 14 -4 -6 -9
-5 -15 3 -4 7 -3 14 4 17 7 2 12 18 12 36 l0 33 -40 -7 c-29 -5 -40 -4 -40 5
0 13 -21 25 -42 25 -6 0 -6 -6 2 -15 10 -13 9 -15 -9 -15 -15 0 -21 -6 -21
-22 0 -22 -1 -22 -25 5 -14 15 -30 27 -34 27 -16 0 -30 -26 -21 -39 4 -8 6
-20 3 -27 -6 -17 -35 12 -52 54 -15 36 -27 41 -34 15 -2 -10 -2 -2 0 17 6 44
9 47 33 32 11 -7 20 -8 20 -3 0 19 -55 29 -88 15z"/>
<path d="M2893 3576 c-15 -13 -44 -26 -64 -30 -35 -6 -104 -65 -145 -124 -15
-22 -15 -22 33 3 26 14 66 31 88 36 51 13 151 100 142 123 -9 22 -20 20 -54
-8z"/>
<path d="M2470 3250 c-30 -16 -61 -30 -68 -30 -17 0 -72 -29 -90 -46 -16 -17
-12 -24 37 -63 l38 -30 70 87 c103 128 103 129 13 82z"/>
<path d="M9578 3190 c-48 -37 -140 -167 -134 -188 16 -49 70 -85 268 -176 53
-24 117 -58 142 -75 43 -30 47 -31 78 -18 18 8 61 13 96 12 35 -1 65 2 68 7 3
4 14 8 25 8 28 0 23 12 -16 39 -19 13 -45 32 -57 43 -37 33 -127 98 -134 98
-4 0 -45 39 -90 88 -127 134 -138 144 -159 157 -38 25 -61 26 -87 5z"/>
<path d="M1895 2951 c-9 -9 -47 -30 -185 -102 -25 -13 -47 -26 -50 -29 -11
-11 -47 -32 -90 -51 -90 -41 -145 -69 -163 -83 -23 -18 -19 -26 57 -121 34
-42 56 -80 56 -95 0 -18 3 -21 9 -11 6 9 11 10 15 2 4 -6 4 -11 -1 -12 -4 0
-18 -2 -30 -5 -16 -3 -33 8 -62 39 -58 62 -81 89 -98 115 -12 16 -21 21 -37
16 -11 -4 -24 -11 -28 -17 -8 -12 73 -119 175 -230 l28 -31 27 21 c15 11 32
34 38 52 5 17 13 29 16 25 10 -9 43 4 69 27 13 12 40 33 59 47 19 15 63 53 97
86 34 32 90 78 125 101 35 23 86 65 115 92 49 49 50 51 30 61 -12 5 -47 33
-79 61 -56 51 -76 59 -93 42z"/>
<path d="M9378 2946 c-60 -45 42 -133 288 -249 66 -31 126 -57 133 -57 12 0
41 24 41 33 0 10 -96 64 -180 101 -175 79 -226 112 -242 157 -11 32 -16 34
-40 15z"/>
<path d="M9286 2858 c-12 -19 -14 -32 -7 -49 14 -36 89 -104 151 -135 30 -16
80 -45 110 -65 30 -19 79 -49 109 -65 l53 -28 19 23 c11 13 19 27 19 31 0 5
-75 46 -166 92 -170 85 -220 121 -253 186 l-18 36 -17 -26z"/>
<path d="M10145 2719 c-16 -5 -51 -8 -76 -7 -29 1 -57 -6 -77 -18 -38 -22 -39
-24 -9 -52 15 -15 27 -18 37 -12 8 5 25 7 37 3 15 -3 23 -1 23 7 0 7 7 10 15
6 15 -5 114 16 136 30 7 4 2 15 -12 30 -24 26 -29 27 -74 13z"/>
<path d="M1180 2535 c-14 -17 -6 -32 43 -86 9 -10 17 -22 17 -25 0 -3 25 -35
56 -70 43 -49 63 -64 83 -64 53 0 50 18 -18 88 -36 38 -81 87 -99 110 -42 53
-66 67 -82 47z"/>
<path d="M10388 2544 c-3 -2 -40 -9 -84 -15 -48 -7 -91 -20 -111 -34 -32 -21
-32 -21 -11 -36 20 -13 72 -55 163 -129 52 -43 97 -94 118 -136 9 -18 35 -49
58 -70 23 -22 55 -52 71 -68 l30 -30 32 18 c17 10 51 30 76 43 25 14 75 47
113 74 37 27 74 49 82 49 34 0 11 29 -55 71 -39 24 -96 60 -128 80 -95 60
-188 107 -208 106 -10 -1 -19 5 -19 13 0 8 -9 14 -18 14 -10 -1 -16 0 -13 3
11 11 -36 47 -63 49 -17 1 -31 0 -33 -2z"/>
<path d="M1071 2462 c-13 -9 -36 -28 -51 -42 -45 -41 -55 -47 -69 -42 -8 3
-11 0 -8 -5 8 -13 -19 -38 -55 -52 -14 -5 -32 -23 -40 -38 -7 -15 -28 -35 -45
-44 -18 -9 -29 -19 -25 -23 4 -4 -7 -6 -23 -4 -23 2 -30 -1 -29 -14 1 -10 -1
-17 -5 -16 -23 3 -44 -5 -61 -22 -11 -11 -22 -20 -25 -20 -3 0 -10 0 -16 0 -5
0 -7 -4 -4 -10 3 -5 1 -10 -4 -10 -25 0 -7 -20 58 -63 l69 -46 53 20 c29 11
101 45 160 75 58 30 119 54 134 54 16 0 47 9 69 19 23 11 66 29 96 42 30 12
56 23 58 24 1 1 -27 32 -63 69 -36 38 -65 70 -65 73 0 10 -54 74 -69 82 -10 6
-25 3 -40 -7z"/>
<path d="M10083 2442 c-14 -9 40 -64 157 -162 85 -72 103 -92 150 -171 42 -72
127 -144 155 -133 23 9 19 15 -40 61 -34 27 -69 69 -97 115 -42 69 -93 120
-253 253 -57 47 -56 47 -72 37z"/>
<path d="M9993 2373 c-7 -2 -13 -10 -12 -16 0 -11 69 -74 158 -144 28 -22 31
-28 17 -33 -13 -4 -7 -11 26 -27 61 -31 128 -91 128 -115 0 -11 14 -33 30 -48
17 -15 30 -26 30 -24 0 3 18 -5 40 -16 47 -24 63 -26 31 -4 -18 13 -20 18 -10
25 11 7 11 9 -2 9 -21 0 -77 56 -99 101 -11 20 -56 70 -101 110 -45 41 -110
100 -144 132 -61 56 -68 60 -92 50z"/>
<path d="M1575 2230 l-20 -9 20 0 c18 -1 16 -4 -10 -26 -16 -13 -34 -25 -40
-25 -5 0 -37 -14 -70 -31 -33 -17 -77 -37 -99 -45 -34 -12 -37 -12 -26 1 7 8
16 15 21 15 5 0 34 14 65 31 53 31 54 32 32 44 -20 10 -27 8 -56 -17 -18 -16
-57 -40 -85 -55 -29 -14 -72 -36 -97 -49 -24 -12 -48 -20 -52 -18 -3 2 -24 -8
-45 -22 -37 -26 -38 -26 -8 -20 48 11 177 37 220 45 22 4 49 12 60 18 11 6 67
18 125 28 162 26 153 23 146 48 -3 12 -6 39 -6 60 0 34 -2 37 -19 27 -25 -13
-44 -13 -36 0 7 11 7 11 -20 0z"/>
<path d="M1265 2173 c-55 -28 -131 -59 -170 -68 -42 -10 -95 -32 -132 -55 -33
-21 -93 -49 -132 -63 l-71 -24 42 -6 c29 -4 48 -1 58 8 8 7 42 21 75 31 33 10
65 24 71 31 6 7 44 24 85 37 75 25 242 107 268 131 35 34 -3 25 -94 -22z"/>
<path d="M333 1926 c4 -10 7 -26 7 -36 0 -10 15 -40 34 -68 34 -48 36 -62 11
-62 -13 0 -65 107 -65 134 0 19 -4 20 -32 5 -54 -29 -144 -131 -132 -150 11
-18 13 -69 3 -69 -5 0 -9 9 -9 21 0 25 -25 20 -82 -17 l-38 -24 22 -25 c11
-13 25 -22 29 -19 4 2 11 -1 15 -7 12 -20 -19 -29 -39 -12 -17 16 -17 16 -11
0 5 -15 16 -21 35 -19 3 1 6 -6 6 -14 0 -10 -11 -8 -44 11 l-43 26 0 -163 1
-163 79 85 c80 86 102 121 81 128 -6 2 -11 8 -11 13 0 4 7 6 15 3 10 -4 15 0
15 12 0 9 -3 15 -6 11 -3 -3 -17 4 -30 16 -16 14 -21 24 -14 31 7 7 14 5 22
-6 27 -32 48 -30 64 7 17 41 18 69 3 59 -7 -4 -9 0 -5 14 4 11 2 23 -4 27 -5
3 -10 10 -10 16 0 17 22 9 57 -21 38 -34 72 -38 114 -13 20 12 29 25 29 42 0
34 14 16 29 -37 13 -46 9 -64 -11 -44 -8 8 -14 7 -25 -4 -8 -8 -27 -14 -43
-14 -22 0 -28 -5 -27 -18 0 -10 8 -19 17 -19 8 -1 20 -2 25 -4 6 -1 23 3 39
10 33 13 31 14 40 -16 8 -26 -25 -53 -67 -53 -56 0 -88 -37 -50 -58 11 -6 27
-5 49 4 18 8 49 14 68 14 26 0 35 -5 40 -22 3 -13 1 -27 -4 -32 -4 -4 -6 -15
-3 -22 3 -8 0 -14 -6 -14 -6 0 -11 5 -11 10 0 6 -13 10 -30 10 -16 0 -30 -3
-30 -6 0 -13 63 -95 101 -130 39 -37 94 -132 83 -144 -3 -3 -17 9 -31 25 -71
85 -93 107 -144 149 -31 25 -61 46 -67 46 -14 0 -27 -25 -37 -68 -8 -38 -60
-119 -115 -178 -48 -52 -140 -193 -169 -258 -16 -38 -21 -68 -21 -135 l1 -86
42 -31 c98 -71 339 -215 352 -210 8 3 19 23 26 44 6 22 42 81 80 131 38 50 69
100 69 110 0 31 18 71 58 131 53 78 62 87 73 69 5 -8 9 -23 9 -34 0 -11 14
-40 30 -64 17 -25 33 -62 36 -83 4 -21 10 -38 15 -38 4 0 11 -17 15 -37 4 -21
12 -45 19 -53 6 -8 17 -31 24 -50 7 -19 18 -45 24 -58 10 -20 4 -37 -38 -120
-28 -53 -65 -123 -82 -155 -18 -33 -33 -61 -33 -62 0 -2 29 -24 64 -49 l64
-46 86 0 c47 0 86 2 86 4 0 2 -6 22 -14 44 -8 22 -17 57 -20 77 -4 20 -11 45
-16 55 -13 24 -13 43 0 35 13 -8 13 10 1 33 -6 9 -22 60 -37 112 -14 52 -32
113 -39 135 -7 22 -20 76 -29 120 -27 126 -39 160 -58 157 -10 -1 -20 9 -27
29 -14 40 -14 39 3 39 21 0 29 17 22 46 -6 23 -10 25 -45 19 -32 -5 -39 -3
-48 17 -18 40 -17 43 23 54 34 9 39 15 42 44 3 31 2 32 -25 25 -64 -16 -86
-12 -94 18 -7 24 -4 29 19 38 15 6 39 13 54 16 27 5 28 7 22 62 -3 31 -7 62
-10 69 -2 6 1 12 6 12 6 0 10 -5 10 -12 0 -6 2 -9 5 -6 3 3 -5 39 -18 79 -16
50 -28 124 -37 227 -9 95 -18 152 -25 152 -6 0 -20 -7 -32 -15 -22 -15 -23
-14 -38 22 -9 20 -18 47 -20 60 -16 76 -16 77 -25 62 -10 -14 -6 -36 10 -74 5
-11 13 -34 18 -52 l10 -32 -68 -20 c-37 -12 -73 -21 -78 -21 -11 0 -22 33 -22
68 0 12 -4 22 -9 22 -4 0 -6 10 -4 23 3 15 -8 42 -32 77 -20 30 -39 67 -42 83
-3 15 -10 30 -16 34 -6 4 -8 0 -4 -11z"/>
<path d="M9759 1912 c-14 -17 -14 -20 -1 -28 13 -9 13 -12 -1 -26 -9 -8 -13
-18 -10 -21 8 -9 -34 -24 -97 -35 l-55 -10 78 3 c44 2 75 -1 71 -6 -3 -5 -1
-9 4 -9 14 0 9 -33 -5 -43 -7 -4 -10 -14 -7 -21 3 -8 1 -17 -5 -21 -6 -3 -11
-17 -11 -30 0 -13 -4 -26 -10 -30 -5 -3 -7 -12 -4 -19 5 -14 -34 -26 -82 -26
l-24 0 -1 -207 c-1 -301 -2 -327 -16 -340 -34 -36 -39 -9 -48 227 -9 260 -16
322 -32 316 -8 -4 -24 -6 -35 -6 -20 0 -21 -3 -14 -127 16 -301 30 -668 40
-1043 4 -118 9 -259 12 -312 l6 -98 29 0 c16 0 29 5 29 13 0 8 4 7 10 -3 9
-13 10 -13 10 0 0 12 2 13 9 1 9 -13 86 -12 229 5 35 4 52 2 52 -5 0 -6 4 -11
9 -11 4 0 11 26 15 57 12 114 26 260 36 399 5 77 17 161 26 187 9 28 14 66 11
92 -2 25 0 45 5 45 4 0 8 18 8 40 0 33 -3 40 -20 40 -11 0 -20 4 -20 10 0 5
-6 9 -12 7 -8 -1 -12 6 -10 17 2 12 -1 16 -10 11 -9 -6 -10 -5 -3 3 6 6 26 12
45 14 l35 4 6 70 c3 38 15 105 27 149 22 85 32 147 58 344 14 104 14 125 3
132 -29 19 -97 33 -167 34 -66 2 -103 12 -77 21 13 5 8 126 -6 134 -16 11 39
30 89 32 36 1 30 3 -28 8 -41 3 -79 3 -84 -2 -6 -4 -16 -8 -23 -8 -11 0 -11 5
-3 20 10 19 4 70 -9 70 -4 0 -14 -8 -22 -18z"/>
<path d="M11160 1901 c-103 -39 -120 -47 -155 -70 -19 -13 -24 -21 -14 -21 20
0 69 -41 69 -58 0 -7 18 -29 41 -49 22 -20 47 -49 55 -65 26 -50 56 -78 97
-89 22 -6 46 -17 54 -25 14 -13 33 -18 60 -15 6 1 13 -11 15 -26 3 -26 4 -26
21 -9 30 30 32 -6 3 -62 l-26 -51 28 -28 c15 -16 34 -38 43 -50 9 -11 34 -23
56 -26 53 -9 78 -38 107 -129 20 -59 24 -88 19 -127 -3 -28 -2 -51 2 -51 4 0
45 24 91 53 l84 52 0 45 c0 38 -4 47 -25 57 -20 9 -25 8 -25 -3 0 -8 5 -14 11
-14 8 0 8 -5 -1 -15 -7 -8 -19 -15 -26 -15 -8 0 -14 -4 -14 -8 0 -5 -11 -14
-25 -20 -22 -10 -25 -9 -25 8 0 16 9 21 42 27 24 3 37 8 30 11 -6 2 -12 12
-12 21 0 26 34 53 55 45 16 -6 17 0 13 77 -4 77 -8 90 -47 156 -46 78 -97 128
-140 136 -15 3 -37 14 -50 24 -19 16 -21 22 -12 45 8 21 7 26 -3 22 -14 -5
-122 95 -118 109 1 5 -2 6 -6 3 -5 -3 -18 4 -28 15 -10 11 -41 37 -69 57 -27
21 -61 49 -75 64 l-25 27 -75 -28z"/>
<path d="M1525 1775 c-89 -32 -227 -57 -392 -71 l-81 -6 -9 -87 c-4 -47 -8
-156 -7 -241 l0 -155 32 -11 c42 -13 54 -25 42 -44 -9 -13 -11 -13 -20 0 -6
10 -10 11 -10 3 0 -7 -9 -13 -21 -13 -17 0 -20 -5 -17 -36 l3 -36 85 -3 c47
-2 116 -7 153 -13 75 -11 129 -8 256 14 46 7 88 14 92 14 11 0 10 69 -1 95 -8
19 -9 19 -9 -2 -1 -19 -7 -23 -32 -23 l-31 0 40 38 40 37 -5 65 c-2 36 -8 165
-11 286 l-7 222 -90 -33z"/>
<path d="M760 1660 c0 -55 59 -456 75 -506 2 -6 17 -9 34 -6 30 4 31 5 25 46
-4 22 -20 93 -37 156 -28 102 -31 130 -31 248 l1 132 -34 0 -33 0 0 -70z"/>
<path d="M909 1698 c0 -7 -2 -31 -4 -53 -2 -22 -6 -84 -9 -139 -5 -96 -4 -102
38 -235 24 -75 47 -154 51 -176 4 -21 13 -52 21 -67 8 -15 12 -39 8 -52 -3
-13 1 -48 9 -77 9 -30 25 -103 37 -164 51 -252 133 -555 151 -555 6 0 7 5 4
10 -3 6 -2 10 3 10 5 0 27 7 47 16 29 12 35 18 25 24 -8 5 -11 12 -7 16 10 10
45 -37 53 -71 4 -16 15 -36 26 -43 12 -9 17 -20 13 -32 -3 -10 1 -25 11 -34 9
-9 13 -23 10 -31 -8 -23 -23 -18 -30 11 -10 39 -18 22 -11 -20 7 -35 28 -48
38 -23 4 8 8 9 14 1 5 -7 45 -11 99 -12 l92 0 6 81 c4 45 11 98 16 117 33 134
52 752 21 702 -4 -7 -60 -13 -144 -17 -121 -6 -137 -5 -137 9 0 9 -7 16 -16
16 -8 0 -12 -4 -9 -10 3 -5 -3 -10 -14 -10 -14 0 -19 5 -15 15 4 8 14 15 23
15 9 0 27 3 41 5 21 5 22 4 5 -3 -17 -8 -16 -10 13 -14 22 -3 32 -1 32 9 0 7
7 13 15 13 8 0 15 -4 15 -10 0 -17 27 -11 35 8 6 16 7 16 19 0 7 -10 17 -14
22 -10 4 4 3 0 -4 -9 -10 -13 -8 -15 18 -11 17 2 30 10 30 18 0 12 4 12 20 4
16 -8 20 -8 20 4 0 8 -6 17 -12 19 -7 3 -1 6 14 6 14 1 29 -5 31 -11 3 -7 6
11 6 40 1 28 -3 52 -8 52 -4 0 -48 -7 -97 -16 -70 -12 -115 -14 -214 -8 -69 5
-153 8 -187 6 -59 -2 -62 0 -71 26 -9 23 -9 21 -7 -20 1 -26 10 -59 19 -72 9
-14 16 -34 16 -45 0 -11 4 -22 9 -25 5 -3 12 -22 16 -43 4 -20 15 -53 25 -73
9 -19 27 -64 38 -100 40 -129 60 -196 67 -229 l7 -34 -25 19 c-26 20 -57 105
-57 158 0 15 -6 39 -14 54 -11 24 -30 89 -41 145 -2 10 -15 41 -28 70 -13 29
-27 69 -30 89 -3 20 -15 49 -26 65 -12 15 -30 66 -41 113 -12 47 -25 103 -31
126 -11 41 -5 353 8 423 4 23 1 36 -8 42 -21 13 -59 11 -60 -3z m631 -1478
c14 -4 21 -8 16 -9 -5 -1 -3 -8 4 -16 10 -12 10 -15 0 -15 -8 0 -11 -10 -8
-30 2 -16 0 -31 -5 -33 -5 -1 -11 -24 -14 -50 -5 -41 -9 -47 -29 -47 -19 0
-25 8 -34 43 -6 23 -14 49 -17 57 -4 8 -8 25 -9 38 -2 13 -9 30 -15 39 -10 12
-10 16 2 24 17 10 74 10 109 -1z"/>
<path d="M9313 1554 c-3 -8 -3 -68 1 -132 4 -64 12 -205 18 -312 6 -107 12
-226 12 -265 1 -62 3 -70 21 -73 49 -6 48 -27 19 641 l-7 157 -29 0 c-17 0
-31 -6 -35 -16z"/>
<path d="M10510 1563 c0 -3 -9 -59 -20 -124 -30 -174 -51 -234 -113 -315 -54
-71 -117 -181 -117 -206 0 -7 9 -14 21 -15 11 -1 55 -13 97 -26 42 -14 101
-31 130 -38 28 -7 52 -17 52 -21 0 -5 4 -7 9 -4 5 3 37 -3 71 -14 35 -11 69
-20 76 -20 22 0 26 -20 10 -45 -20 -30 -26 -30 -91 -6 -27 11 -95 32 -150 49
-55 16 -133 39 -173 51 -41 13 -76 20 -79 18 -8 -8 -113 -412 -137 -527 -8
-36 -24 -103 -37 -150 -12 -47 -24 -104 -26 -127 l-5 -43 55 0 c31 0 57 4 59
9 2 5 24 5 53 1 82 -14 372 -12 396 3 17 9 23 9 26 0 3 -9 26 -13 64 -13 50 0
59 3 59 18 0 9 -7 26 -15 36 -14 19 -16 18 -53 -7 -44 -31 -52 -33 -52 -11 0
8 -5 12 -11 8 -13 -8 -8 10 32 116 16 41 29 78 29 83 0 17 54 124 85 168 18
25 38 56 45 68 20 39 -6 14 -37 -34 -15 -25 -31 -45 -34 -45 -4 0 1 30 11 66
l18 65 -25 10 c-13 5 -35 12 -49 15 -19 5 -23 11 -18 28 10 33 32 46 61 35 39
-15 50 -11 61 20 9 25 7 30 -14 40 -14 6 -31 11 -39 11 -8 0 -15 5 -15 10 0 6
3 10 8 10 4 0 12 10 17 23 8 18 17 21 46 19 32 -2 37 1 43 24 7 26 0 37 -28
47 -14 5 26 56 44 57 10 0 23 25 39 75 12 41 40 99 62 130 48 69 50 80 4 29
l-35 -39 16 40 c9 22 26 81 39 130 13 50 32 114 44 143 12 29 21 54 21 57 0 2
-21 8 -48 14 -55 11 -83 25 -135 65 -41 31 -47 32 -239 40 -60 2 -108 1 -108
-1z m100 -608 c41 -14 101 -32 133 -41 41 -11 57 -20 57 -33 0 -21 -19 -41
-39 -41 -30 0 -200 75 -188 83 7 4 -4 5 -24 1 -22 -3 -39 -1 -43 5 -6 10 13
51 24 51 3 0 39 -11 80 -25z"/>
<path d="M11170 1420 c-6 -12 -19 -19 -31 -17 -25 2 -32 -9 -54 -84 -9 -31
-34 -79 -56 -108 -21 -28 -35 -51 -31 -51 4 0 13 9 20 20 32 51 25 6 -23 -152
-48 -161 -51 -173 -33 -180 10 -4 18 -12 18 -18 0 -21 -32 -59 -45 -54 -13 5
-30 -38 -26 -64 1 -8 -2 -19 -8 -26 -6 -7 -26 -47 -45 -89 -30 -65 -32 -75
-16 -64 11 6 20 20 20 30 0 33 42 16 67 -28 13 -22 29 -38 35 -36 7 2 22 5 33
6 11 1 20 6 20 11 0 14 38 54 52 54 6 0 14 8 17 18 8 23 145 151 269 249 31
25 57 52 57 60 0 11 -65 81 -123 132 -22 19 -58 86 -51 94 3 2 7 16 9 29 7 34
44 119 64 143 16 20 16 20 -6 1 -27 -22 -28 -20 -8 27 14 34 14 35 -12 42 -17
4 -29 2 -35 -7 -16 -25 -40 -120 -35 -144 2 -13 0 -21 -4 -18 -4 2 -13 -12
-18 -33 -6 -21 -23 -58 -37 -83 -14 -25 -21 -46 -15 -48 18 -6 -29 -111 -98
-222 -74 -118 -127 -187 -137 -177 -11 11 26 79 41 73 9 -3 16 6 20 27 4 18
20 58 36 90 16 32 27 63 23 68 -3 6 1 29 9 52 24 66 74 235 91 310 9 37 24 87
34 110 25 55 32 77 27 77 -2 0 -9 -9 -15 -20z"/>
<path d="M255 1387 c-2 -6 -9 -30 -15 -52 -7 -28 -33 -64 -86 -120 -42 -44
-83 -93 -91 -110 -9 -16 -27 -44 -40 -62 -18 -24 -23 -41 -21 -72 l3 -40 50
76 c28 42 76 106 108 141 52 58 127 192 127 227 0 17 -30 28 -35 12z"/>
<path d="M4557 1288 c8 -111 9 -164 2 -332 -6 -144 5 -160 126 -197 39 -12
108 -34 155 -49 47 -16 106 -31 132 -34 39 -6 47 -4 51 11 3 10 19 63 36 118
17 55 44 151 60 214 17 62 31 115 33 116 2 1 13 -1 24 -5 17 -7 22 -17 22 -52
1 -44 -35 -202 -62 -273 -8 -22 -15 -50 -16 -62 0 -12 -4 -24 -9 -27 -10 -7
-20 -65 -12 -70 3 -2 18 -6 32 -9 25 -6 27 -3 44 56 9 34 21 73 26 87 5 14 22
74 39 134 16 60 32 111 35 114 2 3 10 0 17 -6 10 -7 22 -2 48 19 24 21 29 29
17 29 -9 0 -17 5 -17 10 0 18 -17 10 -28 -12 l-11 -23 0 22 c-1 12 -5 25 -11
28 -5 3 -11 16 -11 28 -1 18 -2 19 -6 4 -4 -15 -7 -16 -21 -5 -14 11 -15 10
-8 -7 6 -16 5 -17 -5 -8 -10 10 -10 18 0 39 12 26 11 26 -25 22 -30 -4 -48 3
-99 37 -68 46 -194 90 -374 130 -63 14 -129 32 -149 40 -19 8 -36 15 -38 15
-3 0 -1 -46 3 -102z"/>
<path d="M6566 1209 c-25 -19 -35 -21 -106 -15 -71 7 -83 5 -127 -17 -26 -14
-72 -32 -102 -41 -29 -8 -78 -28 -108 -43 -54 -26 -57 -26 -84 -10 -28 15 -29
15 -29 -3 0 -27 -16 -25 -46 5 -26 26 -64 34 -64 13 0 -7 -8 3 -17 22 -22 47
-21 47 -39 22 -11 -15 -26 -22 -52 -23 -20 -1 -29 -3 -19 -6 10 -3 17 -15 18
-31 1 -17 3 -21 6 -9 7 26 23 21 23 -8 0 -24 -12 -30 -46 -26 -7 1 -14 -5 -17
-13 -4 -10 -1 -13 9 -9 10 4 12 0 8 -11 -6 -15 -9 -15 -28 3 -12 12 -31 21
-42 21 -14 0 -16 -2 -5 -9 10 -7 11 -10 0 -16 -7 -5 -19 0 -30 14 -16 19 -19
20 -27 5 -6 -11 -11 -13 -16 -5 -10 15 1 31 22 32 14 0 13 2 -3 9 -33 14 -49
12 -36 -4 9 -10 8 -16 -3 -25 -8 -7 -13 -18 -11 -24 3 -7 -4 -23 -15 -37 l-20
-25 4 30 c2 17 7 38 11 48 14 33 -4 31 -35 -4 -22 -26 -30 -30 -30 -16 0 13
-6 16 -22 12 -13 -3 -39 2 -58 12 -41 21 -67 19 -75 -7 -4 -12 -12 -17 -22
-13 -13 5 -15 1 -10 -23 5 -29 -15 -116 -68 -287 -15 -49 -25 -89 -24 -90 2
-1 30 -15 61 -31 31 -16 59 -38 61 -47 5 -17 3 -18 -32 -2 -75 34 -210 75
-321 98 -63 13 -128 28 -143 34 -40 15 -65 15 -49 -1 7 -7 12 -29 12 -50 0
-21 5 -38 10 -38 6 0 10 17 10 39 0 35 2 38 25 33 14 -2 28 -8 31 -13 3 -5 14
-9 24 -9 10 0 20 -5 22 -12 2 -6 19 -13 37 -14 18 -1 38 -7 44 -13 7 -7 13
-67 15 -153 4 -127 6 -141 23 -145 23 -6 24 -19 2 -31 -13 -8 -15 -19 -10 -61
3 -28 2 -51 -3 -51 -5 0 -7 -9 -5 -20 2 -11 -3 -26 -11 -34 -19 -20 -18 -26 6
-26 21 0 28 -16 9 -22 -23 -8 4 -38 33 -38 27 0 30 2 24 25 -6 22 -3 25 21 24
19 -1 22 -3 10 -6 -11 -3 -16 -10 -13 -20 3 -8 6 -17 6 -19 0 -2 5 -4 11 -4
17 0 38 32 39 56 0 20 -4 21 -44 17 -28 -4 -46 -1 -51 7 -5 8 2 11 26 9 56 -3
81 0 74 11 -4 6 -1 17 5 25 10 12 10 15 -1 15 -10 1 -8 4 4 11 9 5 17 15 17
22 0 7 12 36 25 66 20 42 28 52 37 43 7 -7 21 -12 33 -13 11 0 15 -3 8 -5 -7
-3 -9 -12 -6 -20 4 -10 -2 -14 -21 -14 -17 0 -26 -5 -26 -16 0 -13 3 -14 15
-4 12 10 16 9 21 -5 4 -9 3 -20 -2 -24 -5 -3 -10 -26 -10 -51 l0 -45 -42 2
c-25 1 -40 -2 -37 -8 4 -5 19 -9 35 -9 27 0 29 -2 26 -35 -3 -46 20 -47 28 -1
l7 34 57 -5 c61 -5 77 -13 77 -41 0 -13 10 -18 43 -20 56 -4 53 9 -7 35 -58
24 -82 58 -89 122 -6 67 10 109 67 174 27 31 54 72 61 92 6 19 16 35 21 35 9
0 -1 -31 -26 -80 l-16 -30 61 0 60 0 2 45 c3 91 5 105 17 119 6 7 21 16 32 19
18 5 20 2 15 -16 -3 -12 -11 -59 -17 -104 -10 -78 -10 -85 11 -118 12 -19 25
-35 29 -35 5 0 11 28 15 63 3 34 13 94 21 134 8 39 17 89 19 112 2 22 10 51
18 63 8 13 25 50 37 83 12 33 27 65 32 72 8 8 5 10 -10 6 -12 -3 -21 -1 -21 5
0 13 20 28 48 35 17 4 22 1 22 -14 0 -10 -4 -19 -8 -19 -11 0 -34 -114 -26
-133 3 -9 -3 -24 -13 -34 -10 -10 -19 -32 -20 -48 -10 -166 -16 -235 -22 -265
-4 -19 -7 -46 -5 -60 1 -14 -6 -76 -17 -139 -10 -63 -17 -117 -14 -119 7 -7
25 9 25 24 0 8 10 14 23 14 12 0 29 5 37 11 11 7 5 8 -22 3 l-36 -6 4 39 c15
153 20 162 92 163 32 0 31 -10 -19 -203 -6 -22 -8 -41 -6 -43 2 -3 24 -2 48 2
36 6 39 8 21 15 -23 9 -23 23 -1 109 5 19 9 47 9 61 0 36 14 38 269 38 117 -1
215 2 218 4 3 3 13 72 23 154 11 81 31 220 45 308 14 88 30 192 36 230 15 100
17 105 45 105 27 0 28 3 13 31 -7 13 -7 25 -1 32 5 7 12 30 15 52 2 22 7 50
10 63 7 28 -3 28 -37 1z"/>
<path d="M11271 1189 c-12 -21 -7 -28 82 -113 52 -50 98 -101 102 -113 7 -26
27 -30 45 -8 20 24 -34 110 -110 170 -36 29 -71 59 -79 68 -18 22 -23 21 -40
-4z"/>
<path d="M872 1083 c-18 -4 -21 -9 -16 -31 l5 -27 -20 24 c-12 13 -21 20 -21
17 0 -14 31 -66 39 -66 5 0 12 -17 15 -37 14 -81 18 -91 35 -96 23 -6 34 -56
14 -64 -10 -4 -12 -14 -8 -35 4 -16 11 -53 15 -81 4 -29 15 -79 24 -112 27
-105 86 -352 86 -363 0 -6 4 -22 9 -36 9 -23 12 -24 41 -13 29 11 31 14 24 52
-3 22 -19 91 -35 153 -31 120 -37 162 -13 97 8 -22 21 -53 28 -70 8 -16 25
-64 37 -105 13 -41 29 -82 37 -90 13 -13 14 -13 10 0 -3 8 -13 42 -23 75 -10
33 -30 87 -45 120 -15 33 -30 79 -34 103 -3 24 -10 51 -15 60 -33 64 -61 129
-61 140 0 8 -11 46 -24 85 -13 40 -27 93 -30 118 -5 34 -11 46 -23 45 -9 0
-25 14 -36 32 l-19 32 25 0 c14 0 28 4 31 9 7 10 -13 72 -22 70 -4 -1 -17 -4
-30 -6z"/>
<path d="M11595 823 c-4 -18 -14 -33 -21 -33 -8 0 -14 -3 -14 -6 0 -8 24 -30
40 -37 8 -3 10 -6 4 -6 -16 -1 23 -113 45 -131 23 -18 85 -107 120 -170 l41
-75 0 67 c0 58 -4 74 -32 120 -18 29 -41 60 -50 70 -9 9 -25 32 -34 50 -9 18
-27 44 -40 57 -13 13 -24 33 -24 45 0 12 -4 26 -9 32 -5 5 -11 18 -14 29 -3
16 -6 13 -12 -12z"/>
<path d="M11349 749 c-52 -40 -123 -97 -159 -128 -35 -31 -69 -59 -75 -64 -5
-4 -37 -28 -70 -53 -33 -25 -61 -47 -63 -49 -3 -3 12 -30 34 -63 1 -2 31 20
67 50 133 111 215 176 310 247 53 41 97 76 97 78 0 9 -33 53 -39 53 -4 0 -50
-32 -102 -71z"/>
<path d="M9373 713 l-22 -4 4 -242 c2 -133 7 -293 11 -354 l6 -113 39 0 40 0
-5 62 c-3 35 -8 135 -11 223 -3 88 -9 196 -12 240 -4 44 -6 91 -6 105 2 39 -7
90 -15 89 -4 -1 -17 -4 -29 -6z"/>
<path d="M11495 680 c-4 -6 -50 -43 -103 -82 -276 -203 -341 -254 -341 -268 0
-8 8 -26 19 -40 19 -23 21 -24 34 -7 7 9 17 17 21 17 5 0 16 7 26 16 16 15 39
12 39 -4 0 -14 -67 -82 -74 -74 -4 4 0 -12 9 -35 10 -24 14 -50 11 -60 -4 -9
3 -45 15 -80 l21 -63 274 0 c151 0 274 4 274 9 0 11 -39 98 -109 241 -31 64
-65 137 -76 163 -11 26 -22 47 -25 47 -4 0 -13 15 -22 33 -15 31 -15 37 0 67
l16 34 23 -50 c12 -27 22 -55 22 -62 1 -7 5 -11 10 -8 18 11 127 -190 186
-342 20 -52 33 -72 44 -70 22 4 26 76 7 132 -22 64 -111 241 -155 306 -20 30
-55 85 -76 123 -37 64 -56 79 -70 57z"/>
<path d="M0 274 c0 -9 4 -13 9 -10 5 3 11 -4 14 -15 3 -12 10 -18 15 -15 11 7
38 -21 29 -30 -3 -3 -14 -1 -25 5 -39 21 -42 15 -42 -99 l0 -110 120 0 c66 0
120 2 120 5 0 11 -24 55 -30 55 -8 0 -147 172 -140 174 3 1 -5 12 -18 26 -26
28 -52 35 -52 14z"/>
<path d="M2197 93 c-4 -3 -7 -26 -7 -50 l0 -43 285 0 285 0 0 23 c0 20 -9 24
-93 41 -50 11 -117 23 -147 27 -69 9 -314 11 -323 2z"/>
</g>
</svg>
